<?xml version="1.0" encoding="UTF-8"?>
<!DOCTYPE svg PUBLIC "-//W3C//DTD SVG 1.1//EN" "http://www.w3.org/Graphics/SVG/1.1/DTD/svg11.dtd">
<!-- Creator: CorelDRAW -->
<svg xmlns="http://www.w3.org/2000/svg" xml:space="preserve" width="17.9444in" height="10.7133in" version="1.1" style="shape-rendering:geometricPrecision; text-rendering:geometricPrecision; image-rendering:optimizeQuality; fill-rule:evenodd; clip-rule:evenodd"
viewBox="0 0 17881.65 10675.84"
 xmlns:xlink="http://www.w3.org/1999/xlink"
 xmlns:xodm="http://www.corel.com/coreldraw/odm/2003">
 <defs>
  <style type="text/css">
   <![CDATA[
    .fil10 {fill:none}
    .fil9 {fill:#FEFEFE}
    .fil4 {fill:#4C4C8A}
    .fil5 {fill:#575793}
    .fil6 {fill:#F29E0C}
    .fil2 {fill:#FFE39A}
    .fil11 {fill:#FEF8F5}
    .fil8 {fill:#FEFEFE;fill-rule:nonzero}
    .fil0 {fill:#575793;fill-rule:nonzero}
    .fil7 {fill:#F3A319;fill-rule:nonzero}
    .fil3 {fill:#FFE39A;fill-rule:nonzero}
    .fil1 {fill:#FFE39A;fill-opacity:0.501961}
   ]]>
  </style>
 </defs>
 <g id="Layer_x0020_1">
  <metadata id="CorelCorpID_0Corel-Layer"/>
  <path class="fil0" d="M113.59 10658.05l0 -979.85 198.43 0 0 979.85 -198.43 0zm-113.59 -1068.81l140.27 -197.06 172.89 0 138.45 197.06 -150.54 0 -77.32 -99.9 -71.85 99.9 -151.9 0zm7313.78 1068.81l-213.71 0 -84.62 -223.07 -392.99 0 -81.43 223.07 -209.84 0 380.45 -979.85 209.61 0 392.53 979.85zm-362.65 -388.66l-136.17 -362.66 -132.29 362.66 268.46 0zm-17.11 -874.48l91.69 0c-5.25,60.44 -26.69,108.11 -63.87,142.56 -37.18,34.44 -85.3,51.78 -144.38,51.78 -59.3,0 -107.43,-17.34 -144.61,-51.78 -37.18,-34.44 -58.62,-82.11 -63.86,-142.56l91.69 0c3.19,31.48 14.14,55.42 33.3,71.62 19.16,16.2 46.98,24.18 83.48,24.18 36.26,0 64.09,-7.98 83.25,-24.18 19.16,-16.2 30.11,-40.14 33.3,-71.62zm10947.63 1263.14l-213.71 0 -84.62 -223.07 -392.99 0 -81.43 223.07 -209.84 0 380.45 -979.85 209.61 0 392.53 979.85zm-362.65 -388.66l-136.17 -362.66 -132.29 362.66 268.46 0zm-17.11 -874.48l91.69 0c-5.25,60.44 -26.69,108.11 -63.87,142.56 -37.18,34.44 -85.3,51.78 -144.38,51.78 -59.3,0 -107.43,-17.34 -144.61,-51.78 -37.18,-34.44 -58.62,-82.11 -63.86,-142.56l91.69 0c3.19,31.48 14.14,55.42 33.3,71.62 19.16,16.2 46.98,24.18 83.48,24.18 36.26,0 64.09,-7.98 83.25,-24.18 19.16,-16.2 30.11,-40.14 33.3,-71.62zm-17003.98 1263.14l0 -979.85 297.2 0 175.62 668.29 173.57 -668.29 297.88 0 0 979.85 -183.38 0 -0.69 -771.38 -193.19 771.38 -190.68 0 -192.27 -771.38 -0.69 771.38 -183.38 0zm1142.71 0l0 -979.85 317.27 0c120.2,0 198.43,4.79 234.93,14.6 56.11,14.83 103.1,46.76 140.96,96.03 37.86,49.26 56.79,112.9 56.79,190.91 0,60.21 -10.95,110.62 -32.62,151.68 -21.9,41.06 -49.49,73.22 -83.02,96.71 -33.53,23.26 -67.74,38.77 -102.41,46.3 -47.21,9.35 -115.41,14.14 -204.82,14.14l-128.64 0 0 369.5 -198.43 0zm198.43 -814.26l0 279.17 107.89 0c77.77,0 129.55,-5.25 155.78,-15.51 26.23,-10.26 46.76,-26.23 61.58,-48.35 14.83,-21.9 22.35,-47.22 22.35,-76.41 0,-35.81 -10.49,-65.23 -31.25,-88.5 -20.99,-23.26 -47.22,-37.86 -79.38,-43.8 -23.49,-4.33 -70.7,-6.61 -141.87,-6.61l-95.11 0zm714.36 814.26l0 -979.85 416.71 0c104.69,0 180.87,8.9 228.31,26.46 47.67,17.56 85.53,48.81 114.04,93.74 28.51,45.16 42.88,96.48 42.88,154.42 0,73.67 -21.44,134.34 -64.55,182.24 -43.11,47.9 -107.43,78.01 -193.19,90.55 42.65,24.86 77.78,52.23 105.38,82.11 27.82,29.88 65.23,83.02 112.22,159.2l119.52 191.14 -236.52 0 -141.87 -213.94c-50.86,-75.95 -85.76,-123.85 -104.69,-143.7 -18.7,-19.61 -38.55,-33.3 -59.53,-40.6 -21.21,-7.3 -54.51,-10.95 -100.13,-10.95l-40.14 0 0 409.18 -198.43 0zm198.43 -565.19l146.43 0c94.88,0 153.96,-4.11 177.68,-12.09 23.5,-7.98 42.2,-21.9 55.43,-41.51 13.46,-19.62 20.07,-44.25 20.07,-73.67 0,-33.07 -8.9,-59.53 -26.46,-80.06 -17.56,-20.3 -42.43,-33.07 -74.36,-38.32 -16.19,-2.28 -64.32,-3.42 -144.38,-3.42l-154.42 0 0 249.07zm789.86 565.19l0 -979.85 725.31 0 0 165.59 -526.88 0 0 217.59 489.93 0 0 165.59 -489.93 0 0 265.49 546.04 0 0 165.59 -744.47 0zm912.8 -979.85l198.43 0 0 530.98c0,84.39 2.51,138.9 7.3,163.76 8.44,40.14 28.28,72.53 59.76,96.71 31.7,24.41 74.81,36.49 129.55,36.49 55.42,0 97.39,-11.4 125.67,-34.44 28.28,-23.04 45.16,-51.09 50.86,-84.62 5.7,-33.53 8.67,-88.95 8.67,-166.5l0 -542.39 198.43 0 0 515.24c0,117.69 -5.25,200.94 -15.97,249.53 -10.72,48.58 -30.33,89.64 -59.07,123.17 -28.51,33.53 -66.83,59.99 -114.73,79.83 -48.13,19.84 -110.62,29.88 -187.94,29.88 -93.28,0 -163.99,-10.72 -212.12,-32.39 -48.13,-21.67 -86.21,-49.72 -114.27,-84.39 -28.06,-34.67 -46.3,-70.71 -55.2,-108.8 -13,-56.11 -19.39,-139.13 -19.39,-248.84l0 -523.23zm988.29 979.85l0 -979.85 192.05 0 403.25 656.66 0 -656.66 183.38 0 0 979.85 -198.21 0 -397.1 -644.11 0 644.11 -183.38 0zm2356.8 0l0 -979.85 317.27 0c120.2,0 198.43,4.79 234.93,14.6 56.11,14.83 103.1,46.76 140.96,96.03 37.86,49.26 56.79,112.9 56.79,190.91 0,60.21 -10.95,110.62 -32.62,151.68 -21.9,41.06 -49.49,73.22 -83.02,96.71 -33.53,23.26 -67.74,38.77 -102.41,46.3 -47.21,9.35 -115.41,14.14 -204.82,14.14l-128.64 0 0 369.5 -198.43 0zm198.43 -814.26l0 279.17 107.89 0c77.77,0 129.55,-5.25 155.78,-15.51 26.23,-10.26 46.76,-26.23 61.58,-48.35 14.83,-21.9 22.35,-47.22 22.35,-76.41 0,-35.81 -10.49,-65.23 -31.25,-88.5 -20.99,-23.26 -47.22,-37.86 -79.38,-43.8 -23.49,-4.33 -70.7,-6.61 -141.87,-6.61l-95.11 0zm714.36 814.26l0 -979.85 416.71 0c104.69,0 180.87,8.9 228.31,26.46 47.67,17.56 85.53,48.81 114.04,93.74 28.51,45.16 42.88,96.48 42.88,154.42 0,73.67 -21.44,134.34 -64.55,182.24 -43.11,47.9 -107.43,78.01 -193.19,90.55 42.65,24.86 77.78,52.23 105.38,82.11 27.82,29.88 65.23,83.02 112.22,159.2l119.52 191.14 -236.52 0 -141.87 -213.94c-50.86,-75.95 -85.76,-123.85 -104.69,-143.7 -18.7,-19.61 -38.55,-33.3 -59.53,-40.6 -21.21,-7.3 -54.51,-10.95 -100.13,-10.95l-40.14 0 0 409.18 -198.43 0zm198.43 -565.19l146.43 0c94.88,0 153.96,-4.11 177.68,-12.09 23.5,-7.98 42.2,-21.9 55.43,-41.51 13.46,-19.62 20.07,-44.25 20.07,-73.67 0,-33.07 -8.9,-59.53 -26.46,-80.06 -17.56,-20.3 -42.43,-33.07 -74.36,-38.32 -16.19,-2.28 -64.32,-3.42 -144.38,-3.42l-154.42 0 0 249.07zm783.02 565.19l0 -979.85 198.43 0 0 979.85 -198.43 0zm387.06 0l0 -979.85 192.05 0 403.25 656.66 0 -656.66 183.38 0 0 979.85 -198.21 0 -397.1 -644.11 0 644.11 -183.38 0zm1373.98 0l0 -971.64 198.43 0 0 806.05 491.3 0 0 165.59 -689.73 0zm830.46 0l0 -979.85 725.31 0 0 165.59 -526.88 0 0 217.59 489.93 0 0 165.59 -489.93 0 0 265.49 546.04 0 0 165.59 -744.47 0zm1539.58 -361.29l191.59 58.85c-29.42,107.88 -78.46,187.94 -146.89,240.4 -68.43,52.23 -155.1,78.46 -260.24,78.46 -130.24,0 -237.21,-44.48 -321.15,-133.43 -83.71,-88.96 -125.67,-210.52 -125.67,-364.94 0,-163.08 42.19,-289.9 126.36,-380.22 84.17,-90.32 195.01,-135.49 332.32,-135.49 119.97,0 217.36,35.58 292.18,106.52 44.71,41.97 78.01,102.18 100.36,180.87l-195.7 46.53c-11.63,-50.64 -35.81,-90.78 -72.53,-120.2 -36.95,-29.42 -81.65,-44.02 -134.11,-44.02 -72.76,0 -131.83,26 -176.99,78.23 -45.39,52 -67.97,136.4 -67.97,253.17 0,123.62 22.35,211.89 66.83,264.35 44.71,52.69 102.64,78.92 174.03,78.92 52.69,0 98.08,-16.65 135.94,-50.18 37.86,-33.53 65.23,-85.99 81.65,-157.84zm581.84 361.29l0 -814.26 -290.12 0 0 -165.59 777.31 0 0 165.59 -288.75 0 0 814.26 -198.43 0zm615.6 -979.85l198.43 0 0 530.98c0,84.39 2.51,138.9 7.3,163.76 8.44,40.14 28.28,72.53 59.76,96.71 31.7,24.41 74.81,36.49 129.55,36.49 55.42,0 97.39,-11.4 125.67,-34.44 28.28,-23.04 45.16,-51.09 50.86,-84.62 5.7,-33.53 8.67,-88.95 8.67,-166.5l0 -542.39 198.43 0 0 515.24c0,117.69 -5.25,200.94 -15.97,249.53 -10.72,48.58 -30.33,89.64 -59.07,123.17 -28.51,33.53 -66.83,59.99 -114.73,79.83 -48.13,19.84 -110.62,29.88 -187.94,29.88 -93.28,0 -163.99,-10.72 -212.12,-32.39 -48.13,-21.67 -86.21,-49.72 -114.27,-84.39 -28.06,-34.67 -46.3,-70.71 -55.2,-108.8 -13,-56.11 -19.39,-139.13 -19.39,-248.84l0 -523.23zm988.29 979.85l0 -979.85 416.71 0c104.69,0 180.87,8.9 228.31,26.46 47.67,17.56 85.53,48.81 114.04,93.74 28.51,45.16 42.88,96.48 42.88,154.42 0,73.67 -21.44,134.34 -64.55,182.24 -43.11,47.9 -107.43,78.01 -193.19,90.55 42.65,24.86 77.78,52.23 105.38,82.11 27.82,29.88 65.23,83.02 112.22,159.2l119.52 191.14 -236.52 0 -141.87 -213.94c-50.86,-75.95 -85.76,-123.85 -104.69,-143.7 -18.7,-19.61 -38.55,-33.3 -59.53,-40.6 -21.21,-7.3 -54.51,-10.95 -100.13,-10.95l-40.14 0 0 409.18 -198.43 0zm198.43 -565.19l146.43 0c94.88,0 153.96,-4.11 177.68,-12.09 23.5,-7.98 42.2,-21.9 55.43,-41.51 13.46,-19.62 20.07,-44.25 20.07,-73.67 0,-33.07 -8.9,-59.53 -26.46,-80.06 -17.56,-20.3 -42.43,-33.07 -74.36,-38.32 -16.19,-2.28 -64.32,-3.42 -144.38,-3.42l-154.42 0 0 249.07z"/>
  <g id="_2288730477936">
   <path class="fil1" d="M2582.24 4702.89c170.57,30.83 283.86,194.11 253.02,364.69 -30.84,170.57 -194.11,283.85 -364.69,253.02 -170.57,-30.83 -283.85,-194.11 -253.02,-364.69 30.84,-170.57 194.11,-283.85 364.69,-253.02z"/>
   <path class="fil1" d="M2789.68 4348.62c138.59,25.05 230.64,157.71 205.58,296.31 -25.06,138.59 -157.72,230.63 -296.31,205.58 -138.59,-25.05 -230.63,-157.72 -205.58,-296.31 25.05,-138.59 157.71,-230.64 296.31,-205.58z"/>
   <circle class="fil2" cx="3400.19" cy="5661.53" r="235.39"/>
   <circle class="fil2" cx="3820.97" cy="4716.29" r="353.09"/>
   <ellipse class="fil2" transform="matrix(0.955616 -0.256056 0.2487 0.92816 4133.75 5441.08)" rx="356.9" ry="367.46"/>
   <path class="fil1" d="M5620.49 4934.34c172.74,-14.36 324.42,114.03 338.78,286.77 14.36,172.74 -114.03,324.42 -286.77,338.79 -172.74,14.36 -324.42,-114.03 -338.79,-286.78 -14.36,-172.74 114.03,-324.42 286.78,-338.78z"/>
   <path class="fil1" d="M8610.55 5201.95c163.14,-58.58 342.88,26.18 401.47,189.32 58.58,163.14 -26.18,342.88 -189.32,401.47 -163.14,58.58 -342.88,-26.18 -401.47,-189.32 -58.58,-163.14 26.18,-342.88 189.32,-401.47z"/>
   <path class="fil1" d="M11645.66 5494.27c142.42,-98.81 337.97,-63.46 436.78,78.96 98.81,142.42 63.46,337.97 -78.96,436.78 -142.42,98.81 -337.98,63.46 -436.79,-78.96 -98.81,-142.42 -63.46,-337.98 78.96,-436.79z"/>
   <path class="fil1" d="M14703.82 5808.79c111.99,-132.3 310.03,-148.77 442.34,-36.78 132.3,111.99 148.77,310.03 36.78,442.34 -111.99,132.3 -310.03,148.77 -442.34,36.78 -132.3,-111.99 -148.77,-310.03 -36.78,-442.34z"/>
   <path class="fil1" d="M5729.17 4538.45c140.35,-11.67 263.6,92.65 275.26,233.01 11.67,140.35 -92.65,263.6 -233.01,275.26 -140.35,11.67 -263.59,-92.65 -275.26,-233 -11.67,-140.35 92.65,-263.6 233.01,-275.27z"/>
   <path class="fil1" d="M8613.07 4791.42c132.55,-47.6 278.59,21.27 326.19,153.82 47.6,132.55 -21.27,278.59 -153.82,326.19 -132.55,47.6 -278.59,-21.27 -326.19,-153.82 -47.6,-132.55 21.27,-278.59 153.82,-326.19z"/>
   <path class="fil1" d="M11541.84 5097.08c115.72,-80.28 274.6,-51.56 354.89,64.16 80.28,115.72 51.56,274.6 -64.16,354.89 -115.72,80.28 -274.6,51.56 -354.89,-64.16 -80.28,-115.72 -51.56,-274.6 64.16,-354.89z"/>
   <path class="fil1" d="M14500.74 5452.01c91,-107.5 251.9,-120.88 359.4,-29.88 107.5,91 120.88,251.9 29.88,359.4 -91,107.5 -251.9,120.88 -359.4,29.88 -107.5,-91 -120.88,-251.9 -29.88,-359.4z"/>
   <ellipse class="fil2" transform="matrix(0.637077 -0.170704 0.1658 0.618773 6623.6 5538.03)" rx="356.9" ry="367.46"/>
   <ellipse class="fil2" transform="matrix(0.571188 -0.329775 0.320301 0.554777 9735.73 5525.45)" rx="356.9" ry="367.46"/>
   <ellipse class="fil2" transform="matrix(0.466373 -0.466373 0.452974 0.452974 12816.2 5515.53)" rx="356.9" ry="367.46"/>
   <ellipse class="fil2" transform="matrix(0.329775 -0.571188 0.554777 0.320301 15840 5526.36)" rx="356.9" ry="367.46"/>
   <ellipse class="fil2" transform="matrix(0.955616 -0.256056 0.2487 0.92816 6820.47 4626.68)" rx="356.9" ry="367.46"/>
   <ellipse class="fil2" transform="matrix(0.856782 -0.494663 0.480451 0.832166 9690.02 4594.2)" rx="356.9" ry="367.46"/>
   <ellipse class="fil2" transform="matrix(0.699559 -0.699559 0.67946 0.67946 12531.1 4627.84)" rx="356.9" ry="367.46"/>
   <ellipse class="fil2" transform="matrix(0.856782 0.494663 -0.480451 0.832166 10657.4 5029.59)" rx="356.9" ry="367.46"/>
   <path class="fil1" d="M11822.67 5437.13c132.3,111.99 148.77,310.03 36.78,442.34 -111.99,132.3 -310.03,148.77 -442.34,36.78 -132.3,-111.99 -148.77,-310.03 -36.78,-442.34 111.99,-132.3 310.03,-148.77 442.34,-36.78z"/>
   <path class="fil1" d="M12179.46 5234.05c107.5,91 120.88,251.9 29.88,359.4 -91,107.5 -251.9,120.88 -359.4,29.88 -107.5,-91 -120.88,-251.9 -29.88,-359.4 91,-107.5 251.9,-120.88 359.4,-29.88z"/>
   <g>
    <ellipse class="fil2" transform="matrix(0.856782 0.494663 -0.480451 0.832166 11710.1 3849.8)" rx="356.9" ry="367.46"/>
    <path class="fil1" d="M12875.38 4257.34c132.3,111.99 148.77,310.03 36.78,442.34 -111.99,132.3 -310.03,148.77 -442.34,36.78 -132.3,-111.99 -148.77,-310.03 -36.78,-442.34 111.99,-132.3 310.03,-148.77 442.34,-36.78z"/>
    <path class="fil1" d="M13232.16 4054.26c107.5,91 120.88,251.9 29.88,359.4 -91,107.5 -251.9,120.88 -359.4,29.88 -107.5,-91 -120.88,-251.9 -29.88,-359.4 91,-107.5 251.9,-120.88 359.4,-29.88z"/>
    <ellipse class="fil2" transform="matrix(0.571188 0.329775 -0.320301 0.554777 13157.8 5393.53)" rx="356.9" ry="367.46"/>
    <ellipse class="fil2" transform="matrix(0.856782 0.494663 -0.480451 0.832166 13941.4 4888.32)" rx="356.9" ry="367.46"/>
   </g>
   <path class="fil1" d="M14060.65 3132.86c67.49,159.66 -7.23,343.81 -166.89,411.29 -159.66,67.49 -343.81,-7.23 -411.29,-166.89 -67.49,-159.66 7.23,-343.81 166.89,-411.29 159.66,-67.49 343.81,7.23 411.29,166.89z"/>
   <path class="fil1" d="M10260.37 2034.62c54.84,129.73 -5.87,279.34 -135.6,334.18 -129.73,54.84 -279.34,-5.88 -334.17,-135.6 -54.84,-129.73 5.87,-279.34 135.6,-334.17 129.73,-54.84 279.34,5.87 334.17,135.6z"/>
   <ellipse class="fil2" transform="matrix(0.360771 0.552134 -0.536271 0.350405 13799.7 4274.17)" rx="356.9" ry="367.46"/>
   <ellipse class="fil2" transform="matrix(0.541156 0.828201 -0.804406 0.525608 14727 4177.18)" rx="356.9" ry="367.46"/>
   <path class="fil1" d="M10770.46 819.65c132.3,111.99 148.77,310.03 36.78,442.34 -111.99,132.3 -310.03,148.77 -442.34,36.78 -132.3,-111.99 -148.77,-310.03 -36.78,-442.34 111.99,-132.3 310.03,-148.77 442.34,-36.78z"/>
   <path class="fil1" d="M11127.25 616.57c107.5,91 120.88,251.9 29.88,359.4 -91,107.5 -251.9,120.88 -359.4,29.88 -107.5,-91 -120.88,-251.9 -29.88,-359.4 91,-107.5 251.9,-120.88 359.4,-29.88z"/>
   <ellipse class="fil2" transform="matrix(0.571188 0.329775 -0.320301 0.554777 11052.9 1955.84)" rx="356.9" ry="367.46"/>
   <ellipse class="fil2" transform="matrix(0.713858 0.412148 -0.400305 0.693352 12804.8 2545.45)" rx="356.9" ry="367.46"/>
   <path class="fil1" d="M12327.15 3132.86c67.49,159.66 -7.23,343.81 -166.89,411.29 -159.66,67.49 -343.81,-7.23 -411.29,-166.89 -67.49,-159.66 7.23,-343.81 166.89,-411.29 159.66,-67.49 343.81,7.23 411.29,166.89z"/>
   <path class="fil1" d="M12737.19 3112.74c54.84,129.73 -5.87,279.34 -135.6,334.18 -129.73,54.84 -279.34,-5.88 -334.17,-135.6 -54.84,-129.73 5.87,-279.34 135.6,-334.17 129.73,-54.84 279.34,5.87 334.17,135.6z"/>
   <ellipse class="fil2" transform="matrix(0.360771 0.552134 -0.536271 0.350405 12066.2 4274.17)" rx="356.9" ry="367.46"/>
   <ellipse class="fil2" transform="matrix(0.541156 0.828201 -0.804406 0.525608 12993.5 4177.18)" rx="356.9" ry="367.46"/>
   <path class="fil1" d="M10593.66 3132.86c67.49,159.66 -7.23,343.81 -166.89,411.29 -159.66,67.49 -343.81,-7.23 -411.29,-166.89 -67.49,-159.66 7.23,-343.81 166.89,-411.29 159.66,-67.49 343.81,7.23 411.29,166.89z"/>
   <ellipse class="fil2" transform="matrix(0.360771 0.552134 -0.536271 0.350405 10332.7 4274.17)" rx="356.9" ry="367.46"/>
   <ellipse class="fil2" transform="matrix(0.541156 0.828201 -0.804406 0.525608 11260 4177.18)" rx="356.9" ry="367.46"/>
   <path class="fil1" d="M9270.21 3112.74c54.84,129.73 -5.87,279.34 -135.6,334.18 -129.73,54.84 -279.34,-5.88 -334.17,-135.6 -54.84,-129.73 5.87,-279.34 135.6,-334.17 129.73,-54.84 279.34,5.87 334.17,135.6z"/>
   <ellipse class="fil2" transform="matrix(0.360771 0.552134 -0.536271 0.350405 8599.2 4274.17)" rx="356.9" ry="367.46"/>
   <ellipse class="fil2" transform="matrix(0.541156 0.828201 -0.804406 0.525608 9526.52 4177.18)" rx="356.9" ry="367.46"/>
   <path class="fil1" d="M7536.71 3112.74c54.84,129.73 -5.87,279.34 -135.6,334.18 -129.73,54.84 -279.34,-5.88 -334.17,-135.6 -54.84,-129.73 5.87,-279.34 135.6,-334.17 129.73,-54.84 279.34,5.87 334.17,135.6z"/>
   <ellipse class="fil2" transform="matrix(0.360771 0.552134 -0.536271 0.350405 6865.71 4274.17)" rx="356.9" ry="367.46"/>
   <ellipse class="fil2" transform="matrix(0.541156 0.828201 -0.804406 0.525608 7793.03 4177.18)" rx="356.9" ry="367.46"/>
   <path class="fil1" d="M5393.18 3132.86c67.49,159.66 -7.23,343.81 -166.89,411.29 -159.66,67.49 -343.81,-7.23 -411.29,-166.89 -67.49,-159.66 7.23,-343.81 166.89,-411.29 159.66,-67.49 343.81,7.23 411.29,166.89z"/>
   <path class="fil1" d="M5803.22 3112.74c54.84,129.73 -5.87,279.34 -135.6,334.18 -129.73,54.84 -279.34,-5.88 -334.17,-135.6 -54.84,-129.73 5.87,-279.34 135.6,-334.17 129.73,-54.84 279.34,5.87 334.17,135.6z"/>
   <ellipse class="fil2" transform="matrix(0.360771 0.552134 -0.536271 0.350405 5132.22 4274.17)" rx="356.9" ry="367.46"/>
   <ellipse class="fil2" transform="matrix(0.541156 0.828201 -0.804406 0.525608 6059.53 4177.18)" rx="356.9" ry="367.46"/>
   <path class="fil1" d="M3659.68 3132.86c67.49,159.66 -7.23,343.81 -166.89,411.29 -159.66,67.49 -343.81,-7.23 -411.29,-166.89 -67.49,-159.66 7.23,-343.81 166.89,-411.29 159.66,-67.49 343.81,7.23 411.29,166.89z"/>
   <path class="fil1" d="M4069.72 3112.74c54.84,129.73 -5.87,279.34 -135.6,334.18 -129.73,54.84 -279.34,-5.88 -334.17,-135.6 -54.84,-129.73 5.87,-279.34 135.6,-334.17 129.73,-54.84 279.34,5.87 334.17,135.6z"/>
   <ellipse class="fil2" transform="matrix(0.360771 0.552134 -0.536271 0.350405 3398.72 4274.17)" rx="356.9" ry="367.46"/>
   <ellipse class="fil2" transform="matrix(0.541156 0.828201 -0.804406 0.525608 4326.04 4177.18)" rx="356.9" ry="367.46"/>
   <path class="fil1" d="M7095.41 1699.67c67.49,159.66 -7.23,343.81 -166.89,411.29 -159.66,67.49 -343.81,-7.23 -411.29,-166.89 -67.49,-159.66 7.23,-343.81 166.89,-411.29 159.66,-67.49 343.81,7.23 411.29,166.89z"/>
   <path class="fil1" d="M7383.25 1390.44c54.84,129.73 -5.87,279.34 -135.6,334.18 -129.73,54.84 -279.34,-5.88 -334.17,-135.6 -54.84,-129.73 5.87,-279.34 135.6,-334.17 129.73,-54.84 279.34,5.87 334.17,135.6z"/>
   <ellipse class="fil2" transform="matrix(0.360771 0.552134 -0.536271 0.350405 8575.52 3640.55)" rx="356.9" ry="367.46"/>
   <ellipse class="fil2" transform="matrix(0.541156 0.828201 -0.804406 0.525608 2807.27 3969.54)" rx="356.9" ry="367.46"/>
   <ellipse class="fil2" transform="matrix(0.856782 0.494663 -0.480451 0.832166 11076.9 3001.79)" rx="356.9" ry="367.46"/>
   <ellipse class="fil2" transform="matrix(0.856782 0.494663 -0.480451 0.832166 8979.25 3001.79)" rx="356.9" ry="367.46"/>
   <ellipse class="fil2" transform="matrix(0.856782 0.494663 -0.480451 0.832166 6881.57 3001.79)" rx="356.9" ry="367.46"/>
   <ellipse class="fil2" transform="matrix(0.856782 0.494663 -0.480451 0.832166 4783.9 3001.79)" rx="356.9" ry="367.46"/>
   <ellipse class="fil2" transform="matrix(0.856782 0.494663 -0.480451 0.832166 3150.08 5275.45)" rx="356.9" ry="367.46"/>
   <ellipse class="fil2" transform="matrix(0.856782 0.494663 -0.480451 0.832166 4426.54 4462.87)" rx="356.9" ry="367.46"/>
   <ellipse class="fil2" transform="matrix(0.856782 0.494663 -0.480451 0.832166 5708.28 3766.19)" rx="356.9" ry="367.46"/>
   <ellipse class="fil2" transform="matrix(0.856782 0.494663 -0.480451 0.832166 6990.01 3069.5)" rx="356.9" ry="367.46"/>
   <ellipse class="fil2" transform="matrix(0.856782 0.494663 -0.480451 0.832166 8271.74 2372.82)" rx="356.9" ry="367.46"/>
   <ellipse class="fil2" transform="matrix(0.856782 0.494663 -0.480451 0.832166 9553.47 1676.14)" rx="356.9" ry="367.46"/>
   <path class="fil1" d="M14056.29 5754.46c-65.17,160.62 -248.22,237.99 -408.84,172.82 -160.62,-65.18 -238,-248.22 -172.82,-408.84 65.18,-160.62 248.22,-237.99 408.84,-172.82 160.62,65.18 237.99,248.22 172.82,408.84z"/>
   <path class="fil1" d="M14360.46 6030.18c-52.95,130.5 -201.68,193.37 -332.18,140.41 -130.5,-52.96 -193.37,-201.68 -140.41,-332.18 52.96,-130.51 201.68,-193.37 332.18,-140.42 130.5,52.96 193.37,201.68 140.41,332.19z"/>
   <path class="fil1" d="M11908 4698.7c-65.17,160.62 -248.22,237.99 -408.84,172.82 -160.62,-65.18 -238,-248.22 -172.82,-408.84 65.18,-160.62 248.22,-237.99 408.84,-172.82 160.62,65.18 237.99,248.22 172.82,408.84z"/>
   <path class="fil1" d="M9759.71 3642.94c-65.17,160.62 -248.22,237.99 -408.84,172.82 -160.62,-65.18 -238,-248.22 -172.82,-408.84 65.18,-160.62 248.22,-237.99 408.84,-172.82 160.62,65.18 237.99,248.22 172.82,408.84z"/>
   <path class="fil1" d="M7611.43 2587.18c-65.17,160.62 -248.22,237.99 -408.84,172.82 -160.62,-65.18 -238,-248.22 -172.82,-408.84 65.18,-160.62 248.22,-237.99 408.84,-172.82 160.62,65.18 237.99,248.22 172.82,408.84z"/>
   <path class="fil1" d="M12212.17 4974.42c-52.95,130.5 -201.68,193.37 -332.18,140.41 -130.5,-52.96 -193.37,-201.68 -140.41,-332.18 52.96,-130.51 201.68,-193.37 332.18,-140.42 130.5,52.96 193.37,201.68 140.41,332.19z"/>
   <path class="fil1" d="M10063.89 3918.66c-52.95,130.5 -201.68,193.37 -332.18,140.41 -130.5,-52.96 -193.37,-201.68 -140.41,-332.18 52.96,-130.51 201.68,-193.37 332.18,-140.42 130.5,52.96 193.37,201.68 140.41,332.19z"/>
   <path class="fil1" d="M7915.6 2862.9c-52.95,130.5 -201.68,193.37 -332.18,140.41 -130.5,-52.96 -193.37,-201.68 -140.41,-332.18 52.96,-130.51 201.68,-193.37 332.18,-140.42 130.5,52.96 193.37,201.68 140.41,332.19z"/>
   <path class="fil1" d="M4582.79 2276.7c-27.88,68.71 -106.18,101.81 -174.89,73.93 -68.71,-27.88 -101.81,-106.19 -73.93,-174.9 27.88,-68.71 106.18,-101.81 174.89,-73.93 68.71,27.88 101.81,106.19 73.93,174.9z"/>
   <path class="fil1" d="M5910.4 2220.93c-52.95,130.5 -201.68,193.37 -332.18,140.41 -130.5,-52.96 -193.37,-201.68 -140.41,-332.18 52.96,-130.51 201.68,-193.37 332.18,-140.42 130.5,52.96 193.37,201.68 140.41,332.19z"/>
   <ellipse class="fil2" transform="matrix(0.856782 0.494663 -0.480451 0.832166 10309.4 2633.22)" rx="356.9" ry="367.46"/>
   <ellipse class="fil2" transform="matrix(0.856782 0.494663 -0.480451 0.832166 6082.15 2430.48)" rx="356.9" ry="367.46"/>
   <path class="fil1" d="M6710.45 1651.18c-27.88,68.71 -106.18,101.81 -174.89,73.93 -68.71,-27.88 -101.81,-106.19 -73.93,-174.9 27.88,-68.71 106.18,-101.81 174.89,-73.93 68.71,27.88 101.81,106.19 73.93,174.9z"/>
   <path class="fil1" d="M4774.83 1645.72c-27.88,68.71 -106.18,101.81 -174.89,73.93 -68.71,-27.88 -101.81,-106.19 -73.93,-174.9 27.88,-68.71 106.18,-101.81 174.89,-73.93 68.71,27.88 101.81,106.19 73.93,174.9z"/>
   <path class="fil1" d="M11840.93 1654.28c-27.88,68.71 -106.18,101.81 -174.89,73.93 -68.71,-27.88 -101.81,-106.19 -73.93,-174.9 27.88,-68.71 106.18,-101.81 174.89,-73.93 68.71,27.88 101.81,106.19 73.93,174.9z"/>
   <path class="fil1" d="M12081.86 2346.96c-27.88,68.71 -106.18,101.81 -174.89,73.93 -68.71,-27.88 -101.81,-106.19 -73.93,-174.9 27.88,-68.71 106.18,-101.81 174.89,-73.93 68.71,27.88 101.81,106.19 73.93,174.9z"/>
   <path class="fil1" d="M12322.78 3039.64c-27.88,68.71 -106.18,101.81 -174.89,73.93 -68.71,-27.88 -101.81,-106.19 -73.93,-174.9 27.88,-68.71 106.18,-101.81 174.89,-73.93 68.71,27.88 101.81,106.19 73.93,174.9z"/>
   <path class="fil1" d="M13439.6 2877.14c-27.88,68.71 -106.18,101.81 -174.89,73.93 -68.71,-27.88 -101.81,-106.19 -73.93,-174.9 27.88,-68.71 106.18,-101.81 174.89,-73.93 68.71,27.88 101.81,106.19 73.93,174.9z"/>
   <path class="fil1" d="M13135.96 2015.69c-27.88,68.71 -106.18,101.81 -174.89,73.93 -68.71,-27.88 -101.81,-106.19 -73.93,-174.9 27.88,-68.71 106.18,-101.81 174.89,-73.93 68.71,27.88 101.81,106.19 73.93,174.9z"/>
   <path class="fil1" d="M12242.49 2015.69c-27.88,68.71 -106.18,101.81 -174.89,73.93 -68.71,-27.88 -101.81,-106.19 -73.93,-174.9 27.88,-68.71 106.18,-101.81 174.89,-73.93 68.71,27.88 101.81,106.19 73.93,174.9z"/>
   <path class="fil1" d="M11349.03 2015.69c-27.88,68.71 -106.18,101.81 -174.89,73.93 -68.71,-27.88 -101.81,-106.19 -73.93,-174.9 27.88,-68.71 106.18,-101.81 174.89,-73.93 68.71,27.88 101.81,106.19 73.93,174.9z"/>
   <path class="fil1" d="M10455.56 2015.69c-27.88,68.71 -106.18,101.81 -174.89,73.93 -68.71,-27.88 -101.81,-106.19 -73.93,-174.9 27.88,-68.71 106.18,-101.81 174.89,-73.93 68.71,27.88 101.81,106.19 73.93,174.9z"/>
   <path class="fil1" d="M9807.54 2344.92c-27.88,68.71 -106.18,101.81 -174.89,73.93 -68.71,-27.88 -101.81,-106.19 -73.93,-174.9 27.88,-68.71 106.18,-101.81 174.89,-73.93 68.71,27.88 101.81,106.19 73.93,174.9z"/>
   <path class="fil1" d="M11955.77 2921.83c-27.88,68.71 -106.18,101.81 -174.89,73.93 -68.71,-27.88 -101.81,-106.19 -73.93,-174.9 27.88,-68.71 106.18,-101.81 174.89,-73.93 68.71,27.88 101.81,106.19 73.93,174.9z"/>
   <path class="fil1" d="M14103.99 3498.74c-27.88,68.71 -106.18,101.81 -174.89,73.93 -68.71,-27.88 -101.81,-106.19 -73.93,-174.9 27.88,-68.71 106.18,-101.81 174.89,-73.93 68.71,27.88 101.81,106.19 73.93,174.9z"/>
   <path class="fil1" d="M13166 3548.17c-27.88,68.71 -106.18,101.81 -174.89,73.93 -68.71,-27.88 -101.81,-106.19 -73.93,-174.9 27.88,-68.71 106.18,-101.81 174.89,-73.93 68.71,27.88 101.81,106.19 73.93,174.9z"/>
   <path class="fil1" d="M8380.16 1415.71c132.3,111.99 148.77,310.03 36.78,442.34 -111.99,132.3 -310.03,148.77 -442.34,36.78 -132.3,-111.99 -148.77,-310.03 -36.78,-442.34 111.99,-132.3 310.03,-148.77 442.34,-36.78z"/>
   <path class="fil1" d="M6664.4 1310.65c132.3,111.99 148.77,310.03 36.78,442.34 -111.99,132.3 -310.03,148.77 -442.34,36.78 -132.3,-111.99 -148.77,-310.03 -36.78,-442.34 111.99,-132.3 310.03,-148.77 442.34,-36.78z"/>
   <path class="fil1" d="M15406.13 4782.77c54.84,129.73 -5.87,279.34 -135.6,334.18 -129.73,54.84 -279.34,-5.88 -334.17,-135.6 -54.84,-129.73 5.87,-279.34 135.6,-334.17 129.73,-54.84 279.34,5.87 334.17,135.6z"/>
   <path class="fil1" d="M10534.68 1465.52c-27.88,68.71 -106.18,101.81 -174.89,73.93 -68.71,-27.88 -101.81,-106.19 -73.93,-174.9 27.88,-68.71 106.18,-101.81 174.89,-73.93 68.71,27.88 101.81,106.19 73.93,174.9z"/>
   <path class="fil1" d="M8994.28 1221.05c-27.88,68.71 -106.18,101.81 -174.89,73.93 -68.71,-27.88 -101.81,-106.19 -73.93,-174.9 27.88,-68.71 106.18,-101.81 174.89,-73.93 68.71,27.88 101.81,106.19 73.93,174.9z"/>
   <path class="fil1" d="M5797.51 1521.21c-27.88,68.71 -106.18,101.81 -174.89,73.93 -68.71,-27.88 -101.81,-106.19 -73.93,-174.9 27.88,-68.71 106.18,-101.81 174.89,-73.93 68.71,27.88 101.81,106.19 73.93,174.9z"/>
   <path class="fil1" d="M4135.03 2606.71c-27.88,68.71 -106.18,101.81 -174.89,73.93 -68.71,-27.88 -101.81,-106.19 -73.93,-174.9 27.88,-68.71 106.18,-101.81 174.89,-73.93 68.71,27.88 101.81,106.19 73.93,174.9z"/>
   <path class="fil1" d="M8452.94 3221.19c-27.88,68.71 -106.18,101.81 -174.89,73.93 -68.71,-27.88 -101.81,-106.19 -73.93,-174.9 27.88,-68.71 106.18,-101.81 174.89,-73.93 68.71,27.88 101.81,106.19 73.93,174.9z"/>
   <path class="fil1" d="M8228.56 5603.02c-27.88,68.71 -106.18,101.81 -174.89,73.93 -68.71,-27.88 -101.81,-106.19 -73.93,-174.9 27.88,-68.71 106.18,-101.81 174.89,-73.93 68.71,27.88 101.81,106.19 73.93,174.9z"/>
   <path class="fil1" d="M7783.41 5032.15c-27.88,68.71 -106.18,101.81 -174.89,73.93 -68.71,-27.88 -101.81,-106.19 -73.93,-174.9 27.88,-68.71 106.18,-101.81 174.89,-73.93 68.71,27.88 101.81,106.19 73.93,174.9z"/>
   <path class="fil1" d="M6565.86 1054.48c-27.88,68.71 -106.18,101.81 -174.89,73.93 -68.71,-27.88 -101.81,-106.19 -73.93,-174.9 27.88,-68.71 106.18,-101.81 174.89,-73.93 68.71,27.88 101.81,106.19 73.93,174.9z"/>
   <path class="fil1" d="M7961.63 1099.51c-27.88,68.71 -106.18,101.81 -174.89,73.93 -68.71,-27.88 -101.81,-106.19 -73.93,-174.9 27.88,-68.71 106.18,-101.81 174.89,-73.93 68.71,27.88 101.81,106.19 73.93,174.9z"/>
   <path class="fil1" d="M9923.53 1108.12c-27.88,68.71 -106.18,101.81 -174.89,73.93 -68.71,-27.88 -101.81,-106.19 -73.93,-174.9 27.88,-68.71 106.18,-101.81 174.89,-73.93 68.71,27.88 101.81,106.19 73.93,174.9z"/>
   <path class="fil1" d="M2188.4 5550.46c-27.88,68.71 -106.18,101.81 -174.89,73.93 -68.71,-27.88 -101.81,-106.19 -73.93,-174.9 27.88,-68.71 106.18,-101.81 174.89,-73.93 68.71,27.88 101.81,106.19 73.93,174.9z"/>
   <path class="fil1" d="M9669.02 567.94c-27.88,68.71 -106.18,101.81 -174.89,73.93 -68.71,-27.88 -101.81,-106.19 -73.93,-174.9 27.88,-68.71 106.18,-101.81 174.89,-73.93 68.71,27.88 101.81,106.19 73.93,174.9z"/>
   <path class="fil1" d="M8488.23 594.31c-27.88,68.71 -106.18,101.81 -174.89,73.93 -68.71,-27.88 -101.81,-106.19 -73.93,-174.9 27.88,-68.71 106.18,-101.81 174.89,-73.93 68.71,27.88 101.81,106.19 73.93,174.9z"/>
   <path class="fil1" d="M6874.53 2457.38c-27.88,68.71 -106.18,101.81 -174.89,73.93 -68.71,-27.88 -101.81,-106.19 -73.93,-174.9 27.88,-68.71 106.18,-101.81 174.89,-73.93 68.71,27.88 101.81,106.19 73.93,174.9z"/>
   <path class="fil1" d="M4556.68 3542.96c-27.88,68.71 -106.18,101.81 -174.89,73.93 -68.71,-27.88 -101.81,-106.19 -73.93,-174.9 27.88,-68.71 106.18,-101.81 174.89,-73.93 68.71,27.88 101.81,106.19 73.93,174.9z"/>
   <ellipse class="fil2" transform="matrix(0.713858 0.412148 -0.400305 0.693352 14446.6 3472.28)" rx="356.9" ry="367.46"/>
   <ellipse class="fil2" transform="matrix(0.713858 0.412148 -0.400305 0.693352 8965.74 777.47)" rx="356.9" ry="367.46"/>
   <ellipse class="fil2" transform="matrix(0.713858 0.412148 -0.400305 0.693352 7721.98 818.931)" rx="356.9" ry="367.46"/>
   <path class="fil1" d="M7311.38 380.56c-27.88,68.71 -106.18,101.81 -174.89,73.93 -68.71,-27.88 -101.81,-106.19 -73.93,-174.9 27.88,-68.71 106.18,-101.81 174.89,-73.93 68.71,27.88 101.81,106.19 73.93,174.9z"/>
   <path class="fil1" d="M5616.98 1065.53c-27.88,68.71 -106.18,101.81 -174.89,73.93 -68.71,-27.88 -101.81,-106.19 -73.93,-174.9 27.88,-68.71 106.18,-101.81 174.89,-73.93 68.71,27.88 101.81,106.19 73.93,174.9z"/>
   <path class="fil1" d="M5269.36 2152.99c-52.95,130.5 -201.68,193.37 -332.18,140.41 -130.5,-52.96 -193.37,-201.68 -140.41,-332.18 52.96,-130.51 201.68,-193.37 332.18,-140.42 130.5,52.96 193.37,201.68 140.41,332.19z"/>
   <path class="fil1" d="M11594.61 1416.72c-52.95,130.5 -201.68,193.37 -332.18,140.41 -130.5,-52.96 -193.37,-201.68 -140.41,-332.18 52.96,-130.51 201.68,-193.37 332.18,-140.42 130.5,52.96 193.37,201.68 140.41,332.19z"/>
   <path class="fil1" d="M13848.05 2443.03c-52.95,130.5 -201.68,193.37 -332.18,140.41 -130.5,-52.96 -193.37,-201.68 -140.41,-332.18 52.96,-130.51 201.68,-193.37 332.18,-140.42 130.5,52.96 193.37,201.68 140.41,332.19z"/>
   <path class="fil1" d="M12632.08 1372.09c-52.95,130.5 -201.68,193.37 -332.18,140.41 -130.5,-52.96 -193.37,-201.68 -140.41,-332.18 52.96,-130.51 201.68,-193.37 332.18,-140.42 130.5,52.96 193.37,201.68 140.41,332.19z"/>
   <path class="fil1" d="M14403.8 2681.82c-27.88,68.71 -106.18,101.81 -174.89,73.93 -68.71,-27.88 -101.81,-106.19 -73.93,-174.9 27.88,-68.71 106.18,-101.81 174.89,-73.93 68.71,27.88 101.81,106.19 73.93,174.9z"/>
   <path class="fil1" d="M15570.98 4385.03c-27.88,68.71 -106.18,101.81 -174.89,73.93 -68.71,-27.88 -101.81,-106.19 -73.93,-174.9 27.88,-68.71 106.18,-101.81 174.89,-73.93 68.71,27.88 101.81,106.19 73.93,174.9z"/>
   <path class="fil1" d="M6780.33 725.98c-27.88,68.71 -106.18,101.81 -174.89,73.93 -68.71,-27.88 -101.81,-106.19 -73.93,-174.9 27.88,-68.71 106.18,-101.81 174.89,-73.93 68.71,27.88 101.81,106.19 73.93,174.9z"/>
   <path class="fil1" d="M2619.28 5667.93c-27.88,68.71 -106.18,101.81 -174.89,73.93 -68.71,-27.88 -101.81,-106.19 -73.93,-174.9 27.88,-68.71 106.18,-101.81 174.89,-73.93 68.71,27.88 101.81,106.19 73.93,174.9z"/>
   <path class="fil1" d="M7393.89 3771.47c-27.88,68.71 -106.18,101.81 -174.89,73.93 -68.71,-27.88 -101.81,-106.19 -73.93,-174.9 27.88,-68.71 106.18,-101.81 174.89,-73.93 68.71,27.88 101.81,106.19 73.93,174.9z"/>
   <path class="fil1" d="M8253.53 239.2c-27.88,68.71 -106.18,101.81 -174.89,73.93 -68.71,-27.88 -101.81,-106.19 -73.93,-174.9 27.88,-68.71 106.18,-101.81 174.89,-73.93 68.71,27.88 101.81,106.19 73.93,174.9z"/>
   <path class="fil1" d="M9045.44 184.79c-27.88,68.71 -106.18,101.81 -174.89,73.93 -68.71,-27.88 -101.81,-106.19 -73.93,-174.9 27.88,-68.71 106.18,-101.81 174.89,-73.93 68.71,27.88 101.81,106.19 73.93,174.9z"/>
   <path class="fil1" d="M10046.67 327.82c-27.88,68.71 -106.18,101.81 -174.89,73.93 -68.71,-27.88 -101.81,-106.19 -73.93,-174.9 27.88,-68.71 106.18,-101.81 174.89,-73.93 68.71,27.88 101.81,106.19 73.93,174.9z"/>
   <path class="fil1" d="M10189.25 801.79c-27.88,68.71 -106.18,101.81 -174.89,73.93 -68.71,-27.88 -101.81,-106.19 -73.93,-174.9 27.88,-68.71 106.18,-101.81 174.89,-73.93 68.71,27.88 101.81,106.19 73.93,174.9z"/>
   <path class="fil1" d="M11943.8 849.47c-27.88,68.71 -106.18,101.81 -174.89,73.93 -68.71,-27.88 -101.81,-106.19 -73.93,-174.9 27.88,-68.71 106.18,-101.81 174.89,-73.93 68.71,27.88 101.81,106.19 73.93,174.9z"/>
   <path class="fil1" d="M13307.38 1478.82c-27.88,68.71 -106.18,101.81 -174.89,73.93 -68.71,-27.88 -101.81,-106.19 -73.93,-174.9 27.88,-68.71 106.18,-101.81 174.89,-73.93 68.71,27.88 101.81,106.19 73.93,174.9z"/>
   <path class="fil1" d="M15176.35 3595.71c-27.88,68.71 -106.18,101.81 -174.89,73.93 -68.71,-27.88 -101.81,-106.19 -73.93,-174.9 27.88,-68.71 106.18,-101.81 174.89,-73.93 68.71,27.88 101.81,106.19 73.93,174.9z"/>
   <path class="fil1" d="M4602.26 5452.28c111.99,-132.3 310.03,-148.77 442.34,-36.78 132.3,111.99 148.77,310.03 36.78,442.34 -111.99,132.3 -310.03,148.77 -442.34,36.78 -132.3,-111.99 -148.77,-310.03 -36.78,-442.34z"/>
   <path class="fil1" d="M4399.17 5095.49c91,-107.5 251.9,-120.88 359.4,-29.88 107.5,91 120.88,251.9 29.88,359.4 -91,107.5 -251.9,120.88 -359.4,29.88 -107.5,-91 -120.88,-251.9 -29.88,-359.4z"/>
  </g>
  <path class="fil3" d="M15538.95 7660.85l1695.43 -1381.37c57.05,-44.67 119.06,-89.12 127.48,-167.53 5.94,-55.31 -36.96,-112 -84.44,-159.17 -77.94,-77.43 -193.06,-49.51 -242.31,-9.25l-61.36 49.99c-136.54,104.04 -521.25,361.19 -1099.25,459.87 -386.03,65.9 -722.29,101 -1003.5,119.65 -288.09,19.11 -513.69,21.5 -678.42,21.75 -157.95,0.24 -358.31,-9.36 -565.77,-24.46 -237.76,-17.31 -473.67,-41.02 -659.94,-65.02 -336.43,-43.34 -1507.5,-318.01 -1602.27,-340.3 -44.12,-12.4 -625.97,-170.45 -1198.85,-39.79 -397.15,90.58 -907.56,386.08 -1193.57,565.92 -286,-179.84 -796.42,-475.34 -1193.57,-565.92 -572.88,-130.66 -1154.73,27.4 -1198.85,39.79 -94.77,22.29 -1265.84,296.95 -1602.27,340.3 -186.26,24 -422.17,47.71 -659.94,65.02 -207.46,15.1 -407.82,24.7 -565.77,24.46 -164.73,-0.25 -390.33,-2.64 -678.42,-21.75 -281.2,-18.65 -617.46,-53.75 -1003.5,-119.65 -578,-98.68 -960.01,-359.31 -1101.46,-457.01l-77.06 -52.85c-56.87,-35.68 -146.47,-68.18 -224.41,9.25 -47.48,47.17 -90.39,103.86 -84.44,159.17 8.42,78.41 70.43,122.86 127.48,167.53l1695.43 1381.37 243.72 -299.73 -646.33 -526.61 1.97 0.35c399.36,68.18 749.91,104.66 1044.37,124.19 287.57,19.07 526.53,21.48 702.64,21.75 176.68,0.27 385.22,-9.33 593.02,-24.46 234.23,-17.05 478.57,-41.95 681.13,-68.05 380.72,-49.05 1644.3,-346.98 1647.94,-347.83l9.08 -2.27c1.48,-0.42 514.04,-149.35 1010.89,-36.04 508.74,116.03 1276.12,648.98 1278.34,650.51 2.22,-1.53 769.6,-534.48 1278.34,-650.51 496.84,-113.32 1009.4,35.62 1010.89,36.04l9.08 2.27c3.64,0.86 1267.22,298.78 1647.94,347.83 202.57,26.1 446.9,51 681.13,68.05 207.8,15.12 416.33,24.73 593.02,24.46 176.11,-0.27 415.07,-2.68 702.64,-21.75 294.46,-19.53 645.01,-56.02 1044.37,-124.19l1.97 -0.35 -646.33 526.61 243.72 299.73z"/>
  <path class="fil4" d="M10245.36 7904.59c-21.41,53.15 -51.64,112.41 -83.27,158.68 -109.91,160.76 -279.65,269.98 -458.89,339.28 -197.81,76.48 -418.01,109.49 -629.53,108.67 -211.12,-0.82 -430.65,-35.37 -628.19,-111.21 -174.59,-67.02 -345.19,-172.23 -455.28,-326.62 -38.8,-54.41 -76,-110.42 -108.63,-168.8l-5988.47 0 0 -618.44 14158.15 0 0 618.44 -5805.89 0z"/>
  <path class="fil5" d="M1912.72 7305.76l14118.92 0 0 579.21 -5799.64 0c-28.02,73.09 -68.43,141.37 -86.1,167.22 -407.4,595.86 -1738.42,572.61 -2139.72,9.8 -19.02,-26.67 -70.2,-98.73 -113.03,-177.02l-5980.42 0 0 -579.21z"/>
  <path class="fil3" d="M15494.64 6439.77l389.36 -357.8c56.51,-51.93 67.41,-135.12 26.18,-199.85l-21.36 -33.54c-39.81,-62.51 -115.36,-88.42 -185.14,-63.5 -222.59,79.51 -731.56,237.85 -1241.11,232.1 -655.66,-7.4 -1466.97,-182.01 -1645.49,-220.43 -3.92,-0.84 -1.01,-0.22 -0,0.01l-24.14 -5.06c-54.89,-11.61 -303.82,-92.97 -528.94,-166.54 -182.19,-59.54 -349.15,-114.11 -402.93,-127.28 -9.4,-2.3 -25.63,-7.05 -46.2,-13.07 -184,-53.86 -647.11,-144.86 -1006.21,-17.11 -396.3,162.05 -613.99,308.38 -954.75,574.21l449.87 0c0.85,-0.49 410.56,-220.98 640.48,-317.45 253.28,-86.18 633.93,7.2 786.17,51.76 24.85,7.27 44.45,13.01 59.28,16.64 36.25,8.87 200.78,62.65 380.33,121.33 231.43,75.63 487.32,159.27 561.05,174.86 30.13,6.37 -5.52,-1.08 22.95,5.05 183.17,39.42 1015.63,218.58 1706.15,226.38 289.2,3.27 577.24,-41.48 821.03,-97.29l-235.68 216.58 449.1 0zm-2677.56 -643c0.35,0.07 0.47,0.1 0,0zm-10367.37 643l-389.36 -357.8c-56.51,-51.93 -67.41,-135.12 -26.18,-199.85l21.36 -33.54c39.81,-62.51 115.36,-88.42 185.14,-63.5 222.59,79.51 731.56,237.85 1241.11,232.1 655.66,-7.4 1466.97,-182.01 1645.49,-220.43 3.92,-0.84 1.01,-0.22 0,0.01l24.14 -5.06c54.89,-11.61 303.82,-92.97 528.94,-166.54 182.19,-59.54 349.15,-114.11 402.93,-127.28 9.4,-2.3 25.63,-7.05 46.2,-13.07 184,-53.86 647.11,-144.86 1006.21,-17.11 396.3,162.05 613.99,308.38 954.75,574.21l-449.87 0c-0.85,-0.49 -410.56,-220.98 -640.48,-317.45 -253.28,-86.18 -633.93,7.2 -786.17,51.76 -24.85,7.27 -44.45,13.01 -59.28,16.64 -36.25,8.87 -200.78,62.65 -380.33,121.33 -231.43,75.63 -487.32,159.27 -561.05,174.86 -30.13,6.37 5.52,-1.08 -22.95,5.05 -183.17,39.42 -1015.63,218.58 -1706.15,226.38 -289.2,3.27 -577.24,-41.48 -821.03,-97.29l235.68 216.58 -449.1 0zm2677.56 -643c-0.35,0.07 -0.47,0.1 0,0z"/>
  <path class="fil5" d="M9003.6 1646.96c176.9,0 320.33,142.17 320.33,317.57 0,142.66 -94.91,263.34 -225.5,303.42l0 113.9 2.49 -6.19c0.97,0.32 365.37,114.18 513.35,308.86 16.7,21.97 31.66,41.68 45.05,59.39 21.1,-11.52 44.93,-24.5 71.88,-39.12 214.91,-116.67 593.91,-70.72 594.92,-70.61l-0.27 6.67 46.8 -103.84c-102.6,-90.2 -139.52,-239.22 -80.89,-369.28 72.08,-159.9 261.26,-230.58 422.53,-157.89 161.28,72.7 233.61,261.25 161.52,421.16 -58.63,130.06 -194.73,201.08 -330.28,183.94l-44.33 98.34c11.31,10.13 286.84,258.47 340.68,492.18 6.74,29.27 12.7,55.24 17.96,78.32 24.66,-1.37 52.64,-2.88 84.4,-4.55 244.19,-12.91 566.6,191.56 567.47,192.09l-3.11 5.91 86.92 -73.62c-53.83,-125.56 -23.08,-275.98 85.77,-368.18 133.84,-113.37 335.03,-95.81 449.36,39.17 114.34,134.99 98.55,336.32 -35.29,449.69 -108.87,92.21 -262.28,97.79 -377.28,24.02l-82.31 69.72c5.85,14.01 147.8,356.71 95.91,590.85l-6.6 29.73c27.29,7.15 59.14,15.56 96.32,25.43 236.34,62.73 480.35,356.36 481.02,357.13l-4.77 4.66 105.32 -43.36c-12.66,-136.02 62.81,-269.72 194.73,-324.02 162.19,-66.77 348.26,11.74 415.6,175.31 67.34,163.6 -9.53,350.34 -171.73,417.11 -131.93,54.31 -279.64,12.5 -366.42,-93.04l-99.75 41.06c1.26,15.13 31.08,384.86 -90.25,591.75l-13.61 23.19 -183.53 0c17.17,-29.04 39.45,-66.89 68.32,-116.14 71.99,-122.69 75.35,-335.01 72.12,-438.31l-414.32 170.56c-0.02,0.06 -11.63,30.58 -101.68,239.62 -22.26,51.74 -55.57,100.23 -93.71,144.28l-234.37 0c73.71,-57.28 153.78,-134.43 190.69,-220.25 49.38,-114.64 74.36,-173.98 86.64,-203.65 -30.03,-11.16 -89.03,-32.83 -202.55,-73.82 -183.45,-66.08 -468.12,32.67 -468.85,32.97l-56.38 -153.75c0.89,-0.31 332.41,-115.18 563.92,-32.16 211.38,76.04 246.15,90.48 246.27,90.52l413.2 -170.1c-69.44,-74.87 -223.03,-226.03 -361.96,-262.87 -41.96,-11.15 -76.57,-20.29 -105.1,-27.78 -13.39,58.02 -16.91,70.85 -16.94,70.92l-146.44 -66.99c0.03,-0.06 6.15,-23.43 40.17,-176.14l1.07 -22.06c0.02,0 1.02,0.22 3.65,0.83l8.76 -39.5c30.81,-138.87 -31.21,-341.96 -66.02,-439.27l-341.89 289.59c0,0.07 -1.67,32.68 -23.15,259.27 -23.19,245.85 -267.29,497.49 -267.95,498.15l-115.49 -115.77c0.57,-0.55 210.97,-217.57 229.34,-412.48 11.78,-124.27 17.32,-188.42 19.89,-220.42 -32.01,-1.4 -94.82,-3.89 -215.43,-8.02 -194.88,-6.53 -435.44,174.89 -436.05,175.4l-100.89 -129 0.27 -0.2 -102.51 -36.51c0.28,-0.74 96.91,-287.15 29.66,-471.01 -42.81,-117.26 -65.4,-177.55 -76.84,-207.55 -29.5,12.5 -87.27,37.26 -197.94,85.4 -178.74,77.91 -317.91,345.16 -318.24,345.88l-136.65 -68.13 0.13 2.09 -163.63 6.39c0,-0.8 -17.05,-301.62 -147.98,-446.1 -81.11,-89.36 -123.61,-135.68 -145.36,-159.2 -22.75,22.64 -68.13,68.34 -155.34,157.63 -136.86,139.99 -166.46,440.8 -166.52,441.59l-157.66 -12.86 0.73 1.36 -146.56 73.08c-0.33,-0.72 -139.49,-267.97 -318.23,-345.88 -110.67,-48.14 -168.44,-72.9 -197.94,-85.4 -11.44,29.99 -34.03,90.29 -76.84,207.54 -67.24,183.87 29.39,470.27 29.66,471.01l-146.81 52.27 -91.95 117.58c-0.61,-0.51 -241.18,-181.94 -436.05,-175.4 -120.62,4.13 -183.42,6.62 -215.43,8.02 2.57,32 8.11,96.15 19.88,220.42 18.36,194.91 228.77,411.93 229.34,412.48l-115.49 115.76c-0.65,-0.66 -244.75,-252.3 -267.95,-498.15 -21.48,-226.59 -23.16,-259.21 -23.14,-259.27l-341.9 -289.59c-34.8,97.31 -96.83,300.4 -66.02,439.27 45.96,207.51 53.64,236.81 53.67,236.88l-29.55 13.52 0.37 7.59c-0.03,0 -6.97,1.55 -37.36,9.33l-79.9 36.55c-0.01,-0.04 -0.95,-3.48 -3.72,-14.81 -30.16,7.92 -67.6,17.8 -114.06,30.14 -138.94,36.85 -292.52,188 -361.96,262.86l413.21 170.1c0.11,-0.04 34.88,-14.48 246.26,-90.52 231.51,-83.01 563.03,31.86 563.92,32.16l-56.38 153.75c-0.73,-0.3 -285.4,-99.05 -468.84,-32.96 -113.52,40.98 -172.52,62.65 -202.55,73.82 12.28,29.65 37.25,89.01 86.63,203.64 25.51,59.3 71.62,114.47 122,161.8l-211.2 0c-18.93,-27.38 -35.4,-56.06 -48.21,-85.81 -90.05,-209.04 -101.67,-239.56 -101.67,-239.62l-414.33 -170.56c-3.22,103.3 0.13,315.62 72.12,438.31 12.48,21.3 23.72,40.43 33.86,57.68l-181.19 0c-99.62,-210.94 -72.93,-542.18 -71.74,-556.49l-99.74 -41.05c-86.79,105.54 -234.48,147.35 -366.42,93.04 -162.2,-66.76 -239.08,-253.51 -171.74,-417.1 67.34,-163.58 253.41,-242.08 415.61,-175.31 131.92,54.3 207.39,188 194.73,324.02l105.32 43.36 -4.77 -4.66c0.66,-0.78 244.67,-294.41 481.01,-357.13 41.02,-10.89 75.57,-20 104.64,-27.61 -5.6,-24.95 -11.95,-53.43 -19.17,-86.01 -51.9,-234.15 90.05,-576.85 95.9,-590.86l-82.31 -69.71c-115.01,73.77 -268.41,68.19 -377.28,-24.02 -133.85,-113.37 -149.64,-314.7 -35.29,-449.69 114.34,-134.98 315.52,-152.54 449.36,-39.17 108.86,92.2 139.6,242.63 85.78,368.18l86.91 73.62 -3.12 -5.9c0.87,-0.53 323.28,-205.01 567.47,-192.09 47.5,2.51 86.55,4.65 118.66,6.47 5.6,-24.57 12,-52.53 19.34,-84.39 53.83,-233.71 329.37,-482.05 340.68,-492.19l-44.32 -98.33c-135.56,17.14 -271.65,-53.87 -330.28,-183.94 -72.08,-159.91 0.24,-348.47 161.53,-421.16 161.27,-72.7 350.45,-2.02 422.53,157.89 58.63,130.06 21.7,279.08 -80.89,369.28l46.8 103.84 -0.27 -6.67c1.01,-0.11 380.02,-46.05 594.92,70.61 38.95,21.14 71.41,38.84 98.47,53.65 15.34,-20.29 32.86,-43.4 52.9,-69.76 145.12,-190.94 498.37,-304.11 512.84,-308.7l0 -107.86c-130.62,-40.08 -225.52,-160.75 -225.52,-303.42 0,-175.4 143.42,-317.57 320.33,-317.57zm1891.07 1793.27c3.35,15.87 4.17,20.48 4.18,20.52l-161.01 2.5c0,-0.02 -0.57,-3.02 -2.86,-13.7 -7.58,0.53 -9.84,0.74 -9.86,0.75l-41.98 -155.47c0.04,-0 3.9,-0.4 16.72,-1.34 -4.58,-20.01 -9.71,-42.29 -15.44,-67.16 -31.9,-138.63 -175.24,-295.3 -248.51,-368.19l-184.13 408.48c0.03,0.05 12.55,30.22 90.6,244.02 61.68,168.71 19.15,390.43 -8.74,499.11 98.95,-61.94 285.73,-161.6 456.03,-156.14 224.52,7.43 262.04,10.49 262.17,10.5l340.97 -288.81c-89.08,-49.91 -281.68,-146.58 -425.21,-138.96 -27.2,1.43 -51.39,2.73 -72.93,3.9zm-1139.54 -568.45c12.63,17.2 15.96,22.04 15.98,22.08l-145.77 68.46c-0.01,-0.02 -2.06,-2.96 -9.96,-13.66 -6.5,3.67 -8.43,4.82 -8.44,4.83l-104.75 -122.31c0.03,-0.03 3.87,-2.37 17.29,-9.98 -12.02,-15.85 -25.36,-33.43 -40.19,-52.94 -86.96,-114.44 -285.2,-198.93 -380.86,-234.64l0 446.84c0.08,0.09 26.67,26.74 177.45,193.26 140.26,155.23 175.66,431.83 183.14,511.58 35.66,-63.45 183.78,-309.76 379.65,-395.47 205.89,-89.85 241.08,-103.22 241.2,-103.27l183.63 -407.36c-101.89,-6.76 -317.34,-11.2 -443.64,57.39 -24.17,13.12 -45.64,24.79 -64.71,35.18zm-2103.97 1167.19c-25.49,-89.23 -86.7,-343.96 -17.78,-532.47 78.06,-213.81 90.57,-243.97 90.6,-244.02l-184.13 -408.48c-73.28,72.89 -216.61,229.56 -248.51,368.18 -47.75,207.11 -53.42,236.86 -53.42,236.94l-161.01 -2.5c0,-0.04 0.62,-3.46 2.91,-14.49 -29.21,-1.62 -64.55,-3.53 -107.29,-5.78 -143.53,-7.61 -336.13,89.05 -425.21,138.96l340.97 288.81c0.12,-0.01 37.64,-3.07 262.16,-10.5 201.31,-6.45 425.64,133.98 500.71,185.36zm868.67 -352.28c6.19,-52.3 48.4,-357.34 206.08,-518.66 159.02,-162.84 182.82,-185.2 182.87,-185.23l0 -448.05c-96.76,36.34 -291.81,120.26 -377.86,233.53 -128.64,169.2 -146.03,193.99 -146.07,194.05l-145.76 -68.45c0.02,-0.03 1.93,-2.82 8.34,-11.64 -25.12,-13.71 -55.27,-30.13 -91.51,-49.79 -126.31,-68.59 -341.75,-64.16 -443.64,-57.4l183.63 407.37c0.11,0.05 35.3,13.42 241.19,103.27 202.15,88.47 353.45,347.98 382.73,401z"/>
  <path class="fil6" d="M1639.13 6812.29l193.75 145.31c17.3,12.97 20.82,37.63 7.85,54.93l-33.22 44.29c-12.97,17.3 -37.63,20.82 -54.93,7.85l-193.75 -145.31c-17.3,-12.97 -20.82,-37.63 -7.85,-54.93l33.22 -44.29c12.97,-17.3 37.63,-20.82 54.93,-7.85zm-575.19 -466.65c13.77,9.09 27.56,18.15 41.38,27.16 88.27,57.57 178.73,107.58 274.41,151.72 94.64,43.65 192.11,81.33 289.15,119.23l13.88 5.42c20.11,7.85 30.14,30.71 22.28,50.82l-20.23 51.78c-7.85,20.11 -30.7,30.12 -50.81,22.27l-13.9 -5.43c-100.34,-39.17 -201.03,-78.14 -298.83,-123.37 -100.74,-46.59 -195.95,-99.53 -288.94,-160.17 -14.53,-9.47 -29.02,-19.01 -43.47,-28.61 -9.03,-6 -14.82,-14.72 -16.84,-25.38 -2.01,-10.61 0.2,-20.92 6.39,-29.77l31.73 -45.42c12.15,-17.4 36.08,-21.96 53.79,-10.26zm878.15 360.05l-9.1 -2.82c-177.72,-55.15 -353.19,-128.07 -522.13,-206.06 -191.87,-88.58 -383.18,-187.18 -566.1,-293.19 -9.27,-5.37 -15.54,-13.59 -18.27,-23.95 -2.72,-10.34 -1.31,-20.61 4.1,-29.84l28.02 -47.78c10.88,-18.56 34.89,-24.89 53.51,-14.1 179.29,103.86 366.85,200.33 554.89,287.15 163.49,75.48 333.33,146.36 505.4,199.76l0.96 0.3 0.45 0.31 290.03 92.52c20.57,6.57 31.99,28.64 25.47,49.22l-16.71 52.74c-3.23,10.2 -9.87,18.08 -19.37,23 -9.51,4.92 -19.77,5.78 -29.96,2.53l-281.18 -89.77zm4690.42 -436.51c109.81,-16.13 220.05,-30.59 330.31,-43.26 75.35,-8.66 150.84,-16.47 226.44,-22.7 69.86,-5.76 140.31,-10.41 210.41,-11.48 149.39,-2.26 301,7.75 447.55,37.72 125.85,25.74 249.73,66.72 362.18,129.46 114.6,63.95 228.31,129.95 341.59,196.23 89.78,52.52 180.88,105.16 269.02,160.35 9.07,5.68 15.04,14.08 17.43,24.51 2.38,10.43 0.65,20.59 -5.05,29.64l-29.55 46.94c-11.45,18.19 -35.8,23.76 -54.02,12.35 -87.42,-54.72 -177.78,-106.92 -266.82,-159.01 -111.99,-65.52 -224.4,-130.78 -337.7,-194 -100.38,-56.02 -211.52,-92.31 -323.85,-115.28 -137.16,-28.05 -279.32,-37.2 -419.12,-35.08 -67.52,1.02 -135.44,5.61 -202.72,11.22 -73.84,6.16 -147.59,13.86 -221.2,22.38 -108.56,12.56 -217.08,26.86 -325.21,42.75 -21.34,3.13 -41.28,-11.66 -44.49,-32.99l-8.28 -55.11c-1.59,-10.58 0.9,-20.59 7.28,-29.19 6.37,-8.6 15.21,-13.9 25.8,-15.46zm531.54 122.36c128.75,-19.39 260.9,-18.36 389.75,-0.32 136.6,19.13 278.68,58.7 402.59,119.99l204.95 101.38c19.36,9.58 27.35,33.16 17.79,52.53l-24.57 49.79c-9.57,19.39 -33.19,27.39 -52.58,17.8l-204.9 -101.35c-111.17,-54.99 -239.15,-90.24 -361.68,-107.4 -115.72,-16.2 -234.45,-17.23 -350.11,0.08 -21.04,3.15 -40.8,-11.09 -44.45,-32.05l-9.58 -54.9c-1.86,-10.67 0.48,-20.89 6.81,-29.68 6.34,-8.8 15.27,-14.25 25.99,-15.87zm261.78 242.06c70.28,3.48 141.97,14.72 210.19,31.83 65.1,16.33 129.35,38.71 189.66,68.26 9.81,4.81 16.71,12.78 20.07,23.17 3.36,10.39 2.42,20.9 -2.71,30.53l-26.08 48.9c-9.92,18.6 -32.79,26.03 -51.75,16.83 -51.42,-24.96 -106.35,-43.69 -161.73,-57.59 -59.15,-14.84 -121.34,-24.96 -182.29,-28.16 -21.01,-1.11 -37.42,-18.6 -37.18,-39.64l0.65 -55.41c0.13,-10.94 4.38,-20.62 12.35,-28.12 7.95,-7.48 17.91,-11.15 28.82,-10.6z"/>
  <path class="fil7" d="M7425.25 6645.36c59.79,2.97 132.74,12.64 207.91,31.5 62.05,15.57 126.4,37.55 187.34,67.41 6.94,3.4 11.67,8.86 14.05,16.22 2.38,7.35 1.74,14.55 -1.9,21.37l-26.08 48.9c-6.94,13.02 -22.95,18.23 -36.22,11.78 -52.54,-25.5 -108.97,-44.61 -164,-58.41 -67.7,-16.98 -132.2,-25.75 -184.54,-28.5 -14.71,-0.77 -26.2,-13.01 -26.02,-27.75l0.65 -55.41c0.09,-7.74 3.01,-14.37 8.65,-19.68 5.64,-5.3 12.44,-7.81 20.17,-7.42z"/>
  <path class="fil7" d="M7165.8 6403.18c132.24,-19.92 264.06,-17.43 386.36,-0.31 153.67,21.52 292.74,66.32 399,118.89l204.95 101.38c13.55,6.7 19.14,23.21 12.45,36.77l-24.57 49.79c-6.7,13.57 -23.24,19.17 -36.8,12.46l-204.9 -101.35c-96.72,-47.84 -223.94,-88.72 -365.26,-108.51 -111.96,-15.68 -232.55,-18 -353.48,0.1 -14.73,2.2 -28.56,-7.77 -31.12,-22.44l-9.58 -54.9c-1.32,-7.56 0.28,-14.55 4.77,-20.78 4.48,-6.23 10.6,-9.97 18.19,-11.11z"/>
  <path class="fil7" d="M6634.22 6280.83c108.5,-15.93 516.13,-73.53 765.63,-77.31 153.1,-2.32 303.91,8.62 445.01,37.48 129.51,26.49 250.98,68.05 358.8,128.21 187.05,104.37 519.93,299.81 610.1,356.27 6.42,4.02 10.51,9.77 12.2,17.16 1.69,7.38 0.5,14.34 -3.53,20.75l-29.55 46.94c-8.04,12.77 -25.01,16.66 -37.81,8.65 -89.74,-56.17 -420.91,-250.58 -605.03,-353.32 -97.56,-54.44 -208.4,-92.24 -327.23,-116.54 -133.06,-27.22 -276.03,-37.53 -421.66,-35.32 -240.24,3.64 -643.13,60.67 -750.66,76.48 -14.93,2.19 -28.89,-8.17 -31.13,-23.1l-8.28 -55.11c-1.13,-7.49 0.58,-14.34 5.09,-20.43 4.51,-6.08 10.57,-9.71 18.06,-10.82z"/>
  <path class="fil7" d="M906.21 6098.13c120.04,69.54 325.96,181.51 555.86,287.65 165.32,76.32 342.26,149.24 506.84,200.31l0.43 0.22 290.91 92.88c14.39,4.59 22.39,20.06 17.83,34.45l-16.71 52.74c-2.29,7.22 -6.83,12.62 -13.56,16.1 -6.73,3.48 -13.76,4.07 -20.97,1.77l-290.34 -92.7 -0.02 0.07c-170.42,-52.88 -351.91,-127.59 -520.68,-205.51 -232.5,-107.34 -442.43,-221.58 -565.13,-292.69 -6.56,-3.81 -10.85,-9.43 -12.79,-16.76 -1.93,-7.34 -0.97,-14.34 2.87,-20.88l28.02 -47.78c7.62,-13 24.41,-17.43 37.45,-9.87z"/>
  <path class="fil7" d="M1057.45 6355.46c10.7,7.07 24.83,16.37 41.44,27.2 196.01,127.83 351.15,188.35 565.72,272.05l13.88 5.42c14.09,5.5 21.1,21.48 15.59,35.58l-20.23 51.78c-5.5,14.09 -21.48,21.09 -35.57,15.59l-13.9 -5.43c-220.32,-85.94 -379.62,-148.09 -585.62,-282.43 -16.81,-10.96 -31.86,-20.9 -43.38,-28.55 -6.39,-4.24 -10.36,-10.22 -11.79,-17.76 -1.43,-7.54 0.07,-14.55 4.47,-20.84l31.73 -45.42c8.52,-12.2 25.24,-15.39 37.66,-7.18z"/>
  <path class="fil7" d="M1632.07 6821.71l193.75 145.31c12.1,9.07 14.57,26.35 5.49,38.45l-33.22 44.29c-9.07,12.1 -26.35,14.57 -38.45,5.49l-193.75 -145.31c-12.1,-9.07 -14.57,-26.35 -5.49,-38.45l33.22 -44.29c9.07,-12.1 26.35,-14.57 38.45,-5.49z"/>
  <g id="_2288730469680">
   <path class="fil6" d="M16242.27 6846.6l-193.75 145.31c-17.3,12.97 -20.82,37.63 -7.85,54.93l33.22 44.29c12.97,17.3 37.63,20.82 54.93,7.85l193.75 -145.31c17.3,-12.97 20.82,-37.63 7.85,-54.93l-33.22 -44.29c-12.97,-17.3 -37.63,-20.82 -54.93,-7.85zm575.19 -466.65c-13.77,9.09 -27.56,18.15 -41.38,27.16 -88.27,57.57 -178.73,107.58 -274.41,151.72 -94.64,43.65 -192.11,81.33 -289.15,119.23l-13.88 5.42c-20.11,7.85 -30.14,30.71 -22.28,50.82l20.23 51.78c7.85,20.11 30.7,30.12 50.81,22.27l13.9 -5.43c100.34,-39.17 201.03,-78.14 298.83,-123.37 100.74,-46.59 195.95,-99.53 288.94,-160.17 14.53,-9.47 29.02,-19.01 43.47,-28.61 9.03,-6 14.82,-14.72 16.84,-25.38 2.01,-10.61 -0.2,-20.92 -6.39,-29.77l-31.73 -45.42c-12.15,-17.4 -36.08,-21.96 -53.79,-10.26zm-878.15 360.05l9.1 -2.82c177.72,-55.15 353.19,-128.07 522.13,-206.06 191.87,-88.58 383.18,-187.18 566.1,-293.19 9.27,-5.37 15.54,-13.59 18.27,-23.95 2.72,-10.34 1.31,-20.61 -4.1,-29.84l-28.02 -47.78c-10.88,-18.56 -34.89,-24.89 -53.51,-14.1 -179.29,103.86 -366.85,200.33 -554.89,287.15 -163.49,75.48 -333.33,146.36 -505.4,199.76l-0.96 0.3 -0.45 0.31 -290.03 92.52c-20.57,6.57 -31.99,28.64 -25.47,49.22l16.71 52.74c3.23,10.2 9.87,18.08 19.37,23 9.51,4.92 19.77,5.78 29.96,2.53l281.18 -89.77zm-4690.42 -436.51c-109.81,-16.13 -220.05,-30.59 -330.31,-43.26 -75.35,-8.66 -150.84,-16.47 -226.44,-22.7 -69.86,-5.76 -140.31,-10.41 -210.41,-11.48 -149.39,-2.26 -301,7.75 -447.55,37.72 -125.85,25.74 -249.73,66.72 -362.18,129.46 -114.6,63.95 -228.31,129.95 -341.59,196.23 -89.78,52.52 -180.88,105.16 -269.02,160.35 -9.07,5.68 -15.04,14.08 -17.43,24.51 -2.38,10.43 -0.65,20.59 5.05,29.64l29.55 46.94c11.45,18.19 35.8,23.76 54.02,12.35 87.42,-54.72 177.78,-106.92 266.82,-159.01 111.99,-65.52 224.4,-130.78 337.7,-194 100.38,-56.02 211.52,-92.31 323.85,-115.28 137.16,-28.05 279.32,-37.2 419.12,-35.08 67.52,1.02 135.44,5.61 202.72,11.22 73.84,6.16 147.59,13.86 221.2,22.38 108.56,12.56 217.08,26.86 325.21,42.75 21.34,3.13 41.28,-11.66 44.49,-32.99l8.28 -55.11c1.59,-10.58 -0.9,-20.59 -7.28,-29.19 -6.37,-8.6 -15.21,-13.9 -25.8,-15.46zm-531.54 122.36c-128.75,-19.39 -260.9,-18.36 -389.75,-0.32 -136.6,19.13 -278.68,58.7 -402.59,119.99l-204.95 101.38c-19.36,9.58 -27.35,33.16 -17.79,52.53l24.57 49.79c9.57,19.39 33.19,27.39 52.58,17.8l204.9 -101.35c111.17,-54.99 239.15,-90.24 361.68,-107.4 115.72,-16.2 234.45,-17.23 350.11,0.08 21.04,3.15 40.8,-11.09 44.45,-32.05l9.58 -54.9c1.86,-10.67 -0.48,-20.89 -6.81,-29.68 -6.34,-8.8 -15.27,-14.25 -25.99,-15.87zm-261.78 242.06c-70.28,3.48 -141.97,14.72 -210.19,31.83 -65.1,16.33 -129.35,38.71 -189.66,68.26 -9.81,4.81 -16.71,12.78 -20.07,23.17 -3.36,10.39 -2.42,20.9 2.71,30.53l26.08 48.9c9.92,18.6 32.79,26.03 51.75,16.83 51.42,-24.96 106.35,-43.69 161.73,-57.59 59.15,-14.84 121.34,-24.96 182.29,-28.16 21.01,-1.11 37.42,-18.6 37.18,-39.64l-0.65 -55.41c-0.13,-10.94 -4.38,-20.62 -12.35,-28.12 -7.95,-7.48 -17.91,-11.15 -28.82,-10.6z"/>
   <path class="fil7" d="M16249.33 6856.01l-193.75 145.31c-12.1,9.07 -14.57,26.35 -5.49,38.45l33.22 44.29c9.07,12.1 26.35,14.57 38.45,5.49l193.75 -145.31c12.1,-9.07 14.57,-26.35 5.49,-38.45l-33.22 -44.29c-9.07,-12.1 -26.35,-14.57 -38.45,-5.49zm574.62 -466.25c-10.7,7.07 -24.83,16.37 -41.44,27.2 -196.01,127.83 -351.15,188.35 -565.72,272.05l-13.88 5.42c-14.09,5.5 -21.1,21.48 -15.59,35.58l20.23 51.78c5.5,14.09 21.48,21.09 35.57,15.59l13.9 -5.43c220.32,-85.94 379.62,-148.09 585.62,-282.43 16.81,-10.96 31.86,-20.9 43.38,-28.55 6.39,-4.24 10.36,-10.22 11.79,-17.76 1.43,-7.54 -0.07,-14.55 -4.47,-20.84l-31.73 -45.42c-8.52,-12.2 -25.24,-15.39 -37.66,-7.18zm151.23 -257.33c-120.04,69.54 -325.96,181.51 -555.86,287.65 -165.32,76.32 -342.26,149.24 -506.84,200.31l-0.43 0.22 -290.91 92.88c-14.39,4.59 -22.39,20.06 -17.83,34.45l16.71 52.74c2.29,7.22 6.83,12.62 13.56,16.1 6.73,3.48 13.76,4.07 20.97,1.77l290.34 -92.7 0.02 0.07c170.42,-52.88 351.91,-127.59 520.68,-205.51 232.5,-107.34 442.43,-221.58 565.13,-292.69 6.56,-3.81 10.85,-9.43 12.79,-16.76 1.93,-7.34 0.97,-14.34 -2.87,-20.88l-28.02 -47.78c-7.62,-13 -24.41,-17.43 -37.45,-9.87zm-5728.01 182.7c-108.5,-15.93 -516.13,-73.53 -765.63,-77.31 -153.1,-2.32 -303.91,8.62 -445.01,37.48 -129.51,26.49 -250.98,68.05 -358.8,128.21 -187.05,104.37 -519.93,299.81 -610.1,356.27 -6.42,4.02 -10.51,9.77 -12.2,17.16 -1.69,7.38 -0.5,14.34 3.53,20.75l29.55 46.94c8.04,12.77 25.01,16.66 37.81,8.65 89.74,-56.17 420.91,-250.58 605.03,-353.32 97.56,-54.44 208.4,-92.24 327.23,-116.54 133.06,-27.22 276.03,-37.53 421.66,-35.32 240.24,3.64 643.13,60.67 750.66,76.48 14.93,2.19 28.89,-8.17 31.13,-23.1l8.28 -55.11c1.13,-7.49 -0.58,-14.34 -5.09,-20.43 -4.51,-6.08 -10.57,-9.71 -18.06,-10.82zm-531.58 122.35c-132.24,-19.92 -264.06,-17.43 -386.36,-0.31 -153.67,21.52 -292.74,66.32 -399,118.89l-204.95 101.38c-13.55,6.7 -19.14,23.21 -12.45,36.77l24.57 49.79c6.7,13.57 23.24,19.17 36.8,12.46l204.9 -101.35c96.72,-47.84 223.94,-88.72 365.26,-108.51 111.96,-15.68 232.55,-18 353.48,0.1 14.73,2.2 28.56,-7.77 31.12,-22.44l9.58 -54.9c1.32,-7.56 -0.28,-14.55 -4.77,-20.78 -4.48,-6.23 -10.6,-9.97 -18.19,-11.11zm-259.44 242.17c-59.79,2.97 -132.74,12.64 -207.91,31.5 -62.05,15.57 -126.4,37.55 -187.34,67.41 -6.94,3.4 -11.67,8.86 -14.05,16.22 -2.38,7.35 -1.74,14.55 1.9,21.37l26.08 48.9c6.94,13.02 22.95,18.23 36.22,11.78 52.54,-25.5 108.97,-44.61 164,-58.41 67.7,-16.98 132.2,-25.75 184.54,-28.5 14.71,-0.77 26.2,-13.01 26.02,-27.75l-0.65 -55.41c-0.09,-7.74 -3.01,-14.37 -8.65,-19.68 -5.64,-5.3 -12.44,-7.81 -20.17,-7.42z"/>
  </g>
  <path class="fil6" d="M2342.13 6019.37l105.47 109.89c10.95,11.41 13.99,27.7 7.89,42.29 -6.12,14.64 -19.78,23.88 -35.64,24.1l-94.24 1.33c-12.09,0.17 -22.92,-4.79 -30.66,-14.08l-178.04 -213.79c-17.65,-21.2 4.83,-52.87 19.15,-69.5l42.69 -49.6c10.9,-12.66 27.98,-17.02 43.61,-11.11 73.06,27.62 151.85,53.44 228.48,68.77 72.38,14.48 145.85,26.12 218.98,36.19 21.17,2.91 36.18,22.41 33.59,43.62l-6.76 55.34c-1.31,10.71 -6.46,19.74 -15,26.32 -8.54,6.58 -18.61,9.25 -29.29,7.79 -76.07,-10.46 -152.48,-22.56 -227.77,-37.61 -27.66,-5.53 -55.2,-12.35 -82.48,-19.95z"/>
  <path class="fil7" d="M2304 6175.38l-178.04 -213.79c-12.87,-15.46 11.24,-45.24 19.03,-54.29l42.69 -49.6c7.67,-8.92 19.52,-11.93 30.53,-7.78 40.02,15.13 140.35,51.3 230.34,69.3 85.28,17.05 175.89,30.28 219.69,36.31 14.83,2.04 25.32,15.67 23.51,30.53l-6.76 55.34c-0.93,7.58 -4.45,13.77 -10.5,18.43 -6.05,4.66 -12.93,6.49 -20.5,5.45 -45.29,-6.23 -139.11,-19.91 -227.07,-37.49 -41.17,-8.23 -84.43,-20.04 -123.88,-32.14l136.08 141.78c7.74,8.06 9.84,19.29 5.52,29.6 -4.31,10.31 -13.77,16.72 -24.95,16.87l-94.24 1.33c-8.55,0.12 -15.99,-3.27 -21.46,-9.84z"/>
  <path class="fil6" d="M5457.94 5718.43c82.33,-34.94 166.76,-66.16 251.32,-95.23 98.83,-33.98 198.81,-65.08 299.48,-93.17 100.93,-28.16 203.07,-53.5 305.88,-73.83 88.65,-17.53 180.46,-32.26 270.77,-37.12 227.63,-12.25 433.95,38.01 649.23,105.52 10.2,3.2 18.11,9.82 23.05,19.31 4.95,9.49 5.84,19.76 2.61,29.96l-16.73 52.88c-6.5,20.57 -28.56,32.06 -49.14,25.61 -198.57,-62.25 -391.77,-110.88 -601.77,-99.58 -85.97,4.63 -173.6,18.94 -257.96,35.8 -99.02,19.78 -197.39,44.42 -294.59,71.71 -97.06,27.25 -193.47,57.4 -288.78,90.26 -80.99,27.93 -161.89,57.86 -240.77,91.34 -19.77,8.39 -42.92,-0.94 -51.38,-20.68l-21.94 -51.23c-4.21,-9.83 -4.32,-20.15 -0.34,-30.07 3.99,-9.93 11.22,-17.31 21.06,-21.48z"/>
  <path class="fil7" d="M5462.54 5729.27c283.19,-120.18 807.29,-281.4 1123.48,-298.42 227.23,-12.24 430.32,37.66 645.08,104.99 7.22,2.26 12.64,6.8 16.14,13.52 3.5,6.72 4.11,13.75 1.83,20.97l-16.73 52.88c-4.55,14.39 -19.99,22.44 -34.4,17.93 -200.8,-62.95 -393.54,-111.53 -605.93,-100.1 -303.69,16.34 -814.57,174.79 -1086.07,290.02 -13.88,5.89 -30.02,-0.6 -35.96,-14.48l-21.94 -51.23c-2.98,-6.96 -3.06,-14.03 -0.24,-21.05 2.82,-7.03 7.78,-12.08 14.74,-15.03z"/>
  <g id="_2288603181840">
   <path class="fil6" d="M15607.39 6019.37l-105.47 109.89c-10.95,11.41 -13.99,27.7 -7.89,42.29 6.12,14.64 19.78,23.88 35.64,24.1l94.24 1.33c12.09,0.17 22.92,-4.79 30.66,-14.08l178.04 -213.79c17.65,-21.2 -4.83,-52.87 -19.15,-69.5l-42.69 -49.6c-10.9,-12.66 -27.98,-17.02 -43.61,-11.11 -73.06,27.62 -151.85,53.44 -228.48,68.77 -72.38,14.48 -145.85,26.12 -218.98,36.19 -21.17,2.91 -36.18,22.41 -33.59,43.62l6.76 55.34c1.31,10.71 6.46,19.74 15,26.32 8.54,6.58 18.61,9.25 29.29,7.79 76.07,-10.46 152.48,-22.56 227.77,-37.61 27.66,-5.53 55.2,-12.35 82.48,-19.95z"/>
   <path class="fil7" d="M15645.52 6175.38l178.04 -213.79c12.87,-15.46 -11.24,-45.24 -19.03,-54.29l-42.69 -49.6c-7.67,-8.92 -19.52,-11.93 -30.53,-7.78 -40.02,15.13 -140.35,51.3 -230.34,69.3 -85.28,17.05 -175.89,30.28 -219.69,36.31 -14.83,2.04 -25.32,15.67 -23.51,30.53l6.76 55.34c0.93,7.58 4.45,13.77 10.5,18.43 6.05,4.66 12.93,6.49 20.5,5.45 45.29,-6.23 139.11,-19.91 227.07,-37.49 41.17,-8.23 84.43,-20.04 123.88,-32.14l-136.08 141.78c-7.74,8.06 -9.84,19.29 -5.52,29.6 4.31,10.31 13.77,16.72 24.95,16.87l94.24 1.33c8.55,0.12 15.99,-3.27 21.46,-9.84z"/>
   <path class="fil6" d="M12491.58 5718.43c-82.33,-34.94 -166.76,-66.16 -251.32,-95.23 -98.83,-33.98 -198.81,-65.08 -299.48,-93.17 -100.93,-28.16 -203.07,-53.5 -305.88,-73.83 -88.65,-17.53 -180.46,-32.26 -270.77,-37.12 -227.63,-12.25 -433.95,38.01 -649.23,105.52 -10.2,3.2 -18.11,9.82 -23.05,19.31 -4.95,9.49 -5.84,19.76 -2.61,29.96l16.73 52.88c6.5,20.57 28.56,32.06 49.14,25.61 198.57,-62.25 391.77,-110.88 601.77,-99.58 85.97,4.63 173.6,18.94 257.96,35.8 99.02,19.78 197.39,44.42 294.59,71.71 97.06,27.25 193.47,57.4 288.78,90.26 80.99,27.93 161.89,57.86 240.77,91.34 19.77,8.39 42.92,-0.94 51.38,-20.68l21.94 -51.23c4.21,-9.83 4.32,-20.15 0.34,-30.07 -3.99,-9.93 -11.22,-17.31 -21.06,-21.48z"/>
   <path class="fil7" d="M12486.99 5729.27c-283.19,-120.18 -807.29,-281.4 -1123.48,-298.42 -227.23,-12.24 -430.32,37.66 -645.08,104.99 -7.22,2.26 -12.64,6.8 -16.14,13.52 -3.5,6.72 -4.11,13.75 -1.83,20.97l16.73 52.88c4.55,14.39 19.99,22.44 34.4,17.93 200.8,-62.95 393.54,-111.53 605.93,-100.1 303.69,16.34 814.57,174.79 1086.07,290.02 13.88,5.89 30.02,-0.6 35.96,-14.48l21.94 -51.23c2.98,-6.96 3.06,-14.03 0.24,-21.05 -2.82,-7.03 -7.78,-12.08 -14.74,-15.03z"/>
  </g>
  <path class="fil8" d="M5137.2 7387.39l1332.11 0c11.75,0 21.35,8.74 21.35,19.46l0 39.54c0,10.72 -9.59,19.46 -21.35,19.46l-1332.11 0c-11.75,0 -21.35,-8.74 -21.35,-19.46l0 -39.54c0,-10.72 9.59,-19.46 21.35,-19.46z"/>
  <path class="fil8" d="M11222.41 7643.02l1522 0c13.43,0 24.39,8.74 24.39,19.46l0 39.54c0,10.72 -10.96,19.46 -24.39,19.46l-1522 0c-13.43,0 -24.39,-8.74 -24.39,-19.46l0 -39.54c0,-10.72 10.96,-19.46 24.39,-19.46z"/>
  <g id="_2288603178960">
   <g>
    <path class="fil9" d="M2150.83 7379.03c187.82,2.45 373.22,15.64 559.97,12.87 16.61,0 30.08,17.56 30.08,39.23 0,21.67 -13.47,39.23 -30.08,39.23 -186.97,2.78 -372.99,-10.43 -561.06,-12.89 -16.61,-0.39 -29.84,-18.27 -29.53,-39.93 0.3,-21.66 14.01,-38.91 30.62,-38.51z"/>
   </g>
   <path class="fil10" d="M2150.29 7418.25c123.27,2.91 224.74,-1.77 346.47,11.78 52.41,5.83 153.41,1.1 214.04,1.1"/>
   <g>
    <path class="fil9" d="M2160.97 7550.91c277.33,0.54 563.9,19.07 830.98,16.89 24.41,0 44.19,17.56 44.19,39.23 0,21.67 -19.78,39.23 -44.19,39.23 -267.2,2.19 -553.6,-16.36 -830.98,-16.89 -24.41,0 -44.19,-17.56 -44.19,-39.23 0,-21.67 19.78,-39.23 44.19,-39.23z"/>
   </g>
   <path class="fil10" d="M2160.97 7590.14c240.95,0 480.67,0.68 720.06,16.17 33.83,2.19 75.29,0.72 110.92,0.72"/>
   <g>
    <path class="fil9" d="M2165 7707.49c359.47,1.54 718.35,5.86 1077.82,7.4 30.99,0 56.11,17.56 56.11,39.23 0,21.67 -25.12,39.23 -56.11,39.23 -359.48,-1.54 -718.35,-5.86 -1077.82,-7.4 -30.99,0 -56.11,-17.56 -56.11,-39.23 0,-21.67 25.12,-39.23 56.11,-39.23z"/>
   </g>
   <path class="fil10" d="M2165 7746.72c360.82,0 716.06,7.4 1077.82,7.4"/>
  </g>
  <path class="fil11" d="M9022.28 8290.04c-8.61,0.03 -15.63,7.08 -15.63,15.69l0 62.56c0,8.63 7.06,15.69 15.69,15.69l18.53 0c377.63,4.28 806.4,-105.28 1031.19,-434.07 5.19,-7.58 9.98,-16.43 14.49,-24.45 7.7,-13.68 15.19,-27.5 22.57,-41.35 14.85,-27.85 29.88,-56.37 43.09,-85.02 2.45,-5.31 1.96,-10.76 -1.39,-15.56l-43.88 -62.76c-3.48,-4.97 -8.75,-7.32 -14.77,-6.58 -6.03,0.74 -10.57,4.29 -12.74,9.96l-10.46 27.27c-18.81,49.08 -44.96,101.95 -74.63,145.34 -200.11,292.67 -637.79,392.15 -972.05,393.27z"/>
  <g id="_2288603181936">
   <path class="fil9" d="M15801.38 7493.81c-209.07,2.45 -415.44,15.64 -623.32,12.87 -18.49,0 -33.49,17.56 -33.49,39.23 0,21.67 14.99,39.23 33.49,39.23 208.12,2.78 415.19,-10.43 624.53,-12.89 18.49,-0.39 33.21,-18.27 32.88,-39.93 -0.33,-21.66 -15.59,-38.91 -34.09,-38.51z"/>
   <path class="fil9" d="M15791.29 7614.11c-277.33,0.54 -563.9,19.07 -830.98,16.89 -24.41,0 -44.19,17.56 -44.19,39.23 0,21.67 19.78,39.23 44.19,39.23 267.2,2.19 553.6,-16.36 830.98,-16.89 24.41,0 44.19,-17.56 44.19,-39.23 0,-21.67 -19.78,-39.23 -44.19,-39.23z"/>
   <path class="fil9" d="M15779.37 7738.93c-359.47,1.54 -718.35,5.86 -1077.82,7.4 -30.99,0 -56.11,17.56 -56.11,39.23 0,21.67 25.12,39.23 56.11,39.23 359.48,-1.54 718.35,-5.86 1077.82,-7.4 30.99,0 56.11,-17.56 56.11,-39.23 0,-21.67 -25.12,-39.23 -56.11,-39.23z"/>
   <path class="fil9" d="M15808.85 7365.96c-151.86,8.03 -301.38,26.72 -452.57,29.5 -13.44,0.49 -23.7,18.45 -22.9,40.1 0.79,21.65 12.33,38.8 25.78,38.31 151.36,-2.78 301.38,-21.51 453.45,-29.55 13.43,-0.88 23.47,-19.14 22.43,-40.78 -1.04,-21.64 -12.76,-38.47 -26.19,-37.58z"/>
  </g>
 </g>
</svg>
