<?xml version="1.0" encoding="UTF-8" standalone="no"?>
<svg
   version="1.1"
   width="1308.4591pt"
   height="799.70312pt"
   id="svg367"
   viewBox="0 0 1308.4591 799.70312"
   sodipodi:docname="lOGO Andra.cdr"
   xmlns:inkscape="http://www.inkscape.org/namespaces/inkscape"
   xmlns:sodipodi="http://sodipodi.sourceforge.net/DTD/sodipodi-0.dtd"
   xmlns="http://www.w3.org/2000/svg"
   xmlns:svg="http://www.w3.org/2000/svg">
  <defs
     id="defs371" />
  <sodipodi:namedview
     id="namedview369"
     pagecolor="#ffffff"
     bordercolor="#000000"
     borderopacity="0.25"
     inkscape:showpageshadow="2"
     inkscape:pageopacity="0.0"
     inkscape:pagecheckerboard="0"
     inkscape:deskcolor="#d1d1d1"
     inkscape:document-units="pt" />
  <text
     x="5.9661999"
     y="785.52979"
     id="text10"><tspan
       font-family="Arial"
       font-size="99px"
       fill="#575793"
       id="tspan2">ÎMPREUN</tspan><tspan
       font-family="Arial"
       font-size="99px"
       fill="#575793"
       id="tspan4">Ă</tspan><tspan
       font-family="Arial"
       font-size="99px"
       fill="#575793"
       id="tspan6">PRIN LECTUR</tspan><tspan
       font-family="Arial"
       font-size="99px"
       fill="#575793"
       id="tspan8">Ă</tspan></text>
  <g
     id="Layer1000">
    <path
       d="m 192.5397,353.9685 a 22.6773,22.6773 0 0 1 18.2814,26.3497 22.6773,22.6773 0 1 1 -18.2814,-26.3497 z"
       style="fill:#ffe39a;fill-opacity:0;fill-rule:evenodd"
       id="path12" />
    <path
       d="m 207.5282,328.3716 a 18.4253,18.4253 0 0 1 14.8536,21.4092 18.4253,18.4253 0 1 1 -14.8536,-21.4092 z"
       style="fill:#ffe39a;fill-opacity:0;fill-rule:evenodd"
       id="path14" />
    <path
       d="m 251.6388,406.2254 a 17.008,17.008 0 0 1 17.008,17.0079 17.008,17.008 0 1 1 -17.008,-17.0079 z"
       style="fill:#ffe39a;fill-rule:evenodd"
       id="path16" />
    <path
       d="m 282.041,329.4252 a 25.512,25.5119 0 0 1 25.512,25.512 25.512,25.5119 0 1 1 -25.512,-25.512 z"
       style="fill:#ffe39a;fill-rule:evenodd"
       id="path18" />
    <path
       d="m 298.0372,382.6625 a 25.512,25.5119 0 0 1 31.2457,18.0397 25.512,25.5119 0 1 1 -31.2457,-18.0397 z"
       style="fill:#ffe39a;fill-rule:evenodd"
       id="path20" />
    <path
       d="m 412.0607,370.6918 a 22.6773,22.6773 0 0 1 24.4783,20.7203 22.6773,22.6773 0 1 1 -24.4783,-20.7203 z"
       style="fill:#ffe39a;fill-opacity:0;fill-rule:evenodd"
       id="path22" />
    <path
       d="m 628.1004,390.0273 a 22.6773,22.6773 0 0 1 29.007,13.6788 22.6773,22.6773 0 1 1 -29.007,-13.6788 z"
       style="fill:#ffe39a;fill-opacity:0;fill-rule:evenodd"
       id="path24" />
    <path
       d="m 847.3951,411.1482 a 22.6773,22.6773 0 0 1 31.559,5.7052 22.6773,22.6773 0 1 1 -31.559,-5.7052 z"
       style="fill:#ffe39a;fill-opacity:0;fill-rule:evenodd"
       id="path26" />
    <path
       d="m 1068.3554,433.8732 a 22.6773,22.6773 0 0 1 31.9602,-2.6573 22.6773,22.6773 0 1 1 -31.9602,2.6573 z"
       style="fill:#ffe39a;fill-opacity:0;fill-rule:evenodd"
       id="path28" />
    <path
       d="m 419.9135,342.0878 a 18.4253,18.4253 0 0 1 19.8887,16.8353 18.4253,18.4253 0 1 1 -19.8887,-16.8353 z"
       style="fill:#ffe39a;fill-opacity:0;fill-rule:evenodd"
       id="path30" />
    <path
       d="m 628.2824,360.3655 a 18.4253,18.4253 0 0 1 23.5682,11.1141 18.4253,18.4253 0 1 1 -23.5682,-11.1141 z"
       style="fill:#ffe39a;fill-opacity:0;fill-rule:evenodd"
       id="path32" />
    <path
       d="m 839.8938,382.45 a 18.4253,18.4253 0 0 1 25.6417,4.6355 18.4253,18.4253 0 1 1 -25.6417,-4.6355 z"
       style="fill:#ffe39a;fill-opacity:0;fill-rule:evenodd"
       id="path34" />
    <path
       d="m 1053.6821,408.0943 a 18.4253,18.4253 0 0 1 25.9677,-2.159 18.4253,18.4253 0 1 1 -25.9677,2.159 z"
       style="fill:#ffe39a;fill-opacity:0;fill-rule:evenodd"
       id="path36" />
    <path
       d="m 480.1361,397.8819 a 17.008,17.008 0 0 1 20.8304,12.0264 17.008,17.008 0 1 1 -20.8304,-12.0264 z"
       style="fill:#ffe39a;fill-rule:evenodd"
       id="path38" />
    <path
       d="m 700.8935,398.6717 a 17.008,17.008 0 0 1 23.2333,6.2253 17.008,17.008 0 1 1 -23.2333,-6.2253 z"
       style="fill:#ffe39a;fill-rule:evenodd"
       id="path40" />
    <path
       d="m 919.9451,400.6578 a 17.008,17.008 0 0 1 24.0529,0 17.008,17.008 0 1 1 -24.0529,0 z"
       style="fill:#ffe39a;fill-rule:evenodd"
       id="path42" />
    <path
       d="m 1135.7182,404.9629 a 17.008,17.008 0 0 1 23.2333,-6.2253 17.008,17.008 0 1 1 -23.2333,6.2253 z"
       style="fill:#ffe39a;fill-rule:evenodd"
       id="path44" />
    <path
       d="m 492.1601,323.8202 a 25.512,25.5119 0 0 1 31.2456,18.0397 25.512,25.5119 0 1 1 -31.2456,-18.0397 z"
       style="fill:#ffe39a;fill-rule:evenodd"
       id="path46" />
    <path
       d="m 693.3392,324.0216 a 25.512,25.5119 0 0 1 34.85,9.338 25.512,25.5119 0 1 1 -34.85,-9.338 z"
       style="fill:#ffe39a;fill-rule:evenodd"
       id="path48" />
    <path
       d="m 893.3274,330.5065 a 25.5119,25.5119 0 0 1 36.0793,0 25.5119,25.5119 0 1 1 -36.0793,0 z"
       style="fill:#ffe39a;fill-rule:evenodd"
       id="path50" />
    <path
       d="m 788.7451,355.48 a 25.512,25.5119 0 0 1 9.338,34.85 25.512,25.5119 0 1 1 -9.338,-34.85 z"
       style="fill:#ffe39a;fill-rule:evenodd"
       id="path52" />
    <path
       d="m 860.1845,407.0198 a 22.6773,22.6773 0 0 1 2.6573,31.9602 22.6773,22.6773 0 1 1 -2.6573,-31.9602 z"
       style="fill:#ffe39a;fill-opacity:0;fill-rule:evenodd"
       id="path54" />
    <path
       d="m 885.9634,392.3465 a 18.4253,18.4253 0 0 1 2.159,25.9677 18.4253,18.4253 0 1 1 -2.159,-25.9677 z"
       style="fill:#ffe39a;fill-opacity:0;fill-rule:evenodd"
       id="path56" />
    <g
       id="Layer1001">
      <path
         d="m 864.8057,270.2374 a 25.512,25.5119 0 0 1 9.338,34.85 25.512,25.5119 0 1 1 -9.338,-34.85 z"
         style="fill:#ffe39a;fill-rule:evenodd"
         id="path58" />
      <path
         d="m 936.2451,321.7772 a 22.6773,22.6773 0 0 1 2.6574,31.9602 22.6773,22.6773 0 1 1 -2.6574,-31.9602 z"
         style="fill:#ffe39a;fill-opacity:0;fill-rule:evenodd"
         id="path60" />
      <path
         d="m 962.024,307.1039 a 18.4253,18.4253 0 0 1 2.1591,25.9677 18.4253,18.4253 0 1 1 -2.1591,-25.9677 z"
         style="fill:#ffe39a;fill-opacity:0;fill-rule:evenodd"
         id="path62" />
      <path
         d="m 965.1554,389.14 a 17.008,17.008 0 0 1 6.2254,23.2333 17.008,17.008 0 1 1 -6.2254,-23.2333 z"
         style="fill:#ffe39a;fill-rule:evenodd"
         id="path64" />
      <path
         d="m 1026.0272,345.2727 a 25.512,25.5119 0 0 1 9.338,34.85 25.512,25.5119 0 1 1 -9.338,-34.85 z"
         style="fill:#ffe39a;fill-rule:evenodd"
         id="path66" />
    </g>
    <path
       d="m 1021.884,240.5304 a 22.6773,22.6773 0 0 1 -12.0585,29.7172 22.6773,22.6773 0 1 1 12.0585,-29.7172 z"
       style="fill:#ffe39a;fill-opacity:0;fill-rule:evenodd"
       id="path69" />
    <path
       d="m 747.3042,161.1799 a 18.4253,18.4253 0 0 1 -9.7975,24.1452 18.4253,18.4253 0 1 1 9.7975,-24.1452 z"
       style="fill:#ffe39a;fill-opacity:0;fill-rule:evenodd"
       id="path71" />
    <path
       d="m 1017.2668,313.6894 a 17.008,17.008 0 0 1 -4.9347,23.5413 17.008,17.008 0 1 1 4.9347,-23.5413 z"
       style="fill:#ffe39a;fill-rule:evenodd"
       id="path73" />
    <path
       d="m 1091.3868,302.0302 a 25.5119,25.512 0 0 1 -7.4021,35.3119 25.5119,25.512 0 1 1 7.4021,-35.3119 z"
       style="fill:#ffe39a;fill-rule:evenodd"
       id="path75" />
    <path
       d="m 784.1599,73.3953 a 22.6773,22.6773 0 0 1 2.6573,31.9602 22.6773,22.6773 0 1 1 -2.6573,-31.9602 z"
       style="fill:#ffe39a;fill-opacity:0;fill-rule:evenodd"
       id="path77" />
    <path
       d="m 809.9387,58.722 a 18.4253,18.4253 0 0 1 2.1591,25.9677 18.4253,18.4253 0 1 1 -2.1591,-25.9677 z"
       style="fill:#ffe39a;fill-opacity:0;fill-rule:evenodd"
       id="path79" />
    <path
       d="m 813.0702,140.7581 a 17.008,17.008 0 0 1 6.2253,23.2333 17.008,17.008 0 1 1 -6.2253,-23.2333 z"
       style="fill:#ffe39a;fill-rule:evenodd"
       id="path81" />
    <path
       d="m 941.7751,179.6803 a 21.2562,21.2563 0 0 1 7.7803,29.0366 21.2562,21.2563 0 1 1 -7.7803,-29.0366 z"
       style="fill:#ffe39a;fill-rule:evenodd"
       id="path83" />
    <path
       d="m 896.6346,240.5304 a 22.6773,22.6773 0 0 1 -12.0584,29.7172 22.6773,22.6773 0 1 1 12.0584,-29.7172 z"
       style="fill:#ffe39a;fill-opacity:0;fill-rule:evenodd"
       id="path85" />
    <path
       d="m 926.2613,239.0765 a 18.4253,18.4253 0 0 1 -9.7975,24.1452 18.4253,18.4253 0 1 1 9.7975,-24.1452 z"
       style="fill:#ffe39a;fill-opacity:0;fill-rule:evenodd"
       id="path87" />
    <path
       d="m 892.0174,313.6894 a 17.008,17.008 0 0 1 -4.9347,23.5413 17.008,17.008 0 1 1 4.9347,-23.5413 z"
       style="fill:#ffe39a;fill-rule:evenodd"
       id="path89" />
    <path
       d="m 966.1374,302.0302 a 25.5119,25.512 0 0 1 -7.4021,35.3119 25.5119,25.512 0 1 1 7.4021,-35.3119 z"
       style="fill:#ffe39a;fill-rule:evenodd"
       id="path91" />
    <path
       d="m 771.3852,240.5304 a 22.6773,22.6773 0 0 1 -12.0584,29.7172 22.6773,22.6773 0 1 1 12.0584,-29.7172 z"
       style="fill:#ffe39a;fill-opacity:0;fill-rule:evenodd"
       id="path93" />
    <path
       d="m 766.768,313.6894 a 17.008,17.008 0 0 1 -4.9347,23.5413 17.008,17.008 0 1 1 4.9347,-23.5413 z"
       style="fill:#ffe39a;fill-rule:evenodd"
       id="path95" />
    <path
       d="m 840.888,302.0302 a 25.5119,25.512 0 0 1 -7.4021,35.3119 25.5119,25.512 0 1 1 7.4021,-35.3119 z"
       style="fill:#ffe39a;fill-rule:evenodd"
       id="path97" />
    <path
       d="m 675.7626,239.0765 a 18.4253,18.4253 0 0 1 -9.7976,24.1452 18.4253,18.4253 0 1 1 9.7976,-24.1452 z"
       style="fill:#ffe39a;fill-opacity:0;fill-rule:evenodd"
       id="path99" />
    <path
       d="m 641.5187,313.6894 a 17.008,17.008 0 0 1 -4.9348,23.5413 17.008,17.008 0 1 1 4.9348,-23.5413 z"
       style="fill:#ffe39a;fill-rule:evenodd"
       id="path101" />
    <path
       d="m 715.6386,302.0302 a 25.5119,25.512 0 0 1 -7.402,35.3119 25.5119,25.512 0 1 1 7.402,-35.3119 z"
       style="fill:#ffe39a;fill-rule:evenodd"
       id="path103" />
    <path
       d="m 550.5132,239.0765 a 18.4253,18.4253 0 0 1 -9.7975,24.1452 18.4253,18.4253 0 1 1 9.7975,-24.1452 z"
       style="fill:#ffe39a;fill-opacity:0;fill-rule:evenodd"
       id="path105" />
    <path
       d="m 516.2693,313.6894 a 17.008,17.008 0 0 1 -4.9347,23.5413 17.008,17.008 0 1 1 4.9347,-23.5413 z"
       style="fill:#ffe39a;fill-rule:evenodd"
       id="path107" />
    <path
       d="m 590.3893,302.0302 a 25.5119,25.512 0 0 1 -7.4021,35.3119 25.5119,25.512 0 1 1 7.4021,-35.3119 z"
       style="fill:#ffe39a;fill-rule:evenodd"
       id="path109" />
    <path
       d="m 395.6371,240.5304 a 22.6773,22.6773 0 0 1 -12.0585,29.7172 22.6773,22.6773 0 1 1 12.0585,-29.7172 z"
       style="fill:#ffe39a;fill-opacity:0;fill-rule:evenodd"
       id="path111" />
    <path
       d="m 425.2638,239.0765 a 18.4253,18.4253 0 0 1 -9.7975,24.1452 18.4253,18.4253 0 1 1 9.7975,-24.1452 z"
       style="fill:#ffe39a;fill-opacity:0;fill-rule:evenodd"
       id="path113" />
    <path
       d="m 391.0199,313.6894 a 17.008,17.008 0 0 1 -4.9347,23.5413 17.008,17.008 0 1 1 4.9347,-23.5413 z"
       style="fill:#ffe39a;fill-rule:evenodd"
       id="path115" />
    <path
       d="m 465.1399,302.0302 a 25.5119,25.512 0 0 1 -7.4021,35.3119 25.5119,25.512 0 1 1 7.4021,-35.3119 z"
       style="fill:#ffe39a;fill-rule:evenodd"
       id="path117" />
    <path
       d="m 270.3877,240.5304 a 22.6773,22.6773 0 0 1 -12.0585,29.7172 22.6773,22.6773 0 1 1 12.0585,-29.7172 z"
       style="fill:#ffe39a;fill-opacity:0;fill-rule:evenodd"
       id="path119" />
    <path
       d="m 300.0144,239.0765 a 18.4253,18.4253 0 0 1 -9.7975,24.1452 18.4253,18.4253 0 1 1 9.7975,-24.1452 z"
       style="fill:#ffe39a;fill-opacity:0;fill-rule:evenodd"
       id="path121" />
    <path
       d="m 265.7705,313.6894 a 17.008,17.008 0 0 1 -4.9347,23.5413 17.008,17.008 0 1 1 4.9347,-23.5413 z"
       style="fill:#ffe39a;fill-rule:evenodd"
       id="path123" />
    <path
       d="m 339.8905,302.0302 a 25.5119,25.512 0 0 1 -7.4021,35.3119 25.5119,25.512 0 1 1 7.4021,-35.3119 z"
       style="fill:#ffe39a;fill-rule:evenodd"
       id="path125" />
    <path
       d="m 518.6281,136.9786 a 22.6773,22.6773 0 0 1 -12.0585,29.7172 22.6773,22.6773 0 1 1 12.0585,-29.7172 z"
       style="fill:#ffe39a;fill-opacity:0;fill-rule:evenodd"
       id="path127" />
    <path
       d="m 539.4255,114.6361 a 18.4253,18.4253 0 0 1 -9.7976,24.1453 18.4253,18.4253 0 1 1 9.7976,-24.1453 z"
       style="fill:#ffe39a;fill-opacity:0;fill-rule:evenodd"
       id="path129" />
    <path
       d="m 639.8071,267.9093 a 17.008,17.008 0 0 1 -4.9347,23.5413 17.008,17.008 0 1 1 4.9347,-23.5413 z"
       style="fill:#ffe39a;fill-rule:evenodd"
       id="path131" />
    <path
       d="m 230.156,287.0276 a 25.5119,25.512 0 0 1 -7.4021,35.3119 25.5119,25.512 0 1 1 7.4021,-35.3119 z"
       style="fill:#ffe39a;fill-rule:evenodd"
       id="path133" />
    <path
       d="m 819.0587,208.9665 a 25.512,25.5119 0 0 1 9.338,34.85 25.512,25.5119 0 1 1 -9.338,-34.85 z"
       style="fill:#ffe39a;fill-rule:evenodd"
       id="path135" />
    <path
       d="m 667.4961,208.9665 a 25.512,25.5119 0 0 1 9.338,34.85 25.512,25.5119 0 1 1 -9.338,-34.85 z"
       style="fill:#ffe39a;fill-rule:evenodd"
       id="path137" />
    <path
       d="m 515.9336,208.9665 a 25.512,25.5119 0 0 1 9.338,34.85 25.512,25.5119 0 1 1 -9.338,-34.85 z"
       style="fill:#ffe39a;fill-rule:evenodd"
       id="path139" />
    <path
       d="m 364.371,208.9665 a 25.512,25.5119 0 0 1 9.338,34.85 25.512,25.5119 0 1 1 -9.338,-34.85 z"
       style="fill:#ffe39a;fill-rule:evenodd"
       id="path141" />
    <path
       d="m 246.3236,373.2442 a 25.512,25.5119 0 0 1 9.338,34.8499 25.512,25.5119 0 1 1 -9.338,-34.8499 z"
       style="fill:#ffe39a;fill-rule:evenodd"
       id="path143" />
    <path
       d="m 338.5514,314.533 a 25.512,25.5119 0 0 1 9.338,34.85 25.512,25.5119 0 1 1 -9.338,-34.85 z"
       style="fill:#ffe39a;fill-rule:evenodd"
       id="path145" />
    <path
       d="m 431.1598,264.1959 a 25.512,25.5119 0 0 1 9.338,34.85 25.512,25.5119 0 1 1 -9.338,-34.85 z"
       style="fill:#ffe39a;fill-rule:evenodd"
       id="path147" />
    <path
       d="m 523.7682,213.8589 a 25.512,25.5119 0 0 1 9.3381,34.8499 25.512,25.5119 0 1 1 -9.3381,-34.8499 z"
       style="fill:#ffe39a;fill-rule:evenodd"
       id="path149" />
    <path
       d="m 616.3767,163.5218 a 25.512,25.5119 0 0 1 9.338,34.85 25.512,25.5119 0 1 1 -9.338,-34.85 z"
       style="fill:#ffe39a;fill-rule:evenodd"
       id="path151" />
    <path
       d="m 708.9851,113.1847 a 25.512,25.5119 0 0 1 9.338,34.85 25.512,25.5119 0 1 1 -9.338,-34.85 z"
       style="fill:#ffe39a;fill-rule:evenodd"
       id="path153" />
    <path
       d="m 1021.5691,429.948 a 22.6773,22.6773 0 0 1 -29.5399,12.4866 22.6773,22.6773 0 1 1 29.5399,-12.4866 z"
       style="fill:#ffe39a;fill-opacity:0;fill-rule:evenodd"
       id="path155" />
    <path
       d="m 1043.5464,449.8691 a 18.4253,18.4253 0 0 1 -24.0012,10.1454 18.4253,18.4253 0 1 1 24.0012,-10.1454 z"
       style="fill:#ffe39a;fill-opacity:0;fill-rule:evenodd"
       id="path157" />
    <path
       d="M 866.3498,353.6665 A 22.6773,22.6773 0 0 1 836.81,366.1531 22.6773,22.6773 0 1 1 866.3498,353.6665 Z"
       style="fill:#ffe39a;fill-opacity:0;fill-rule:evenodd"
       id="path159" />
    <path
       d="m 711.1306,277.3851 a 22.6773,22.6773 0 0 1 -29.5399,12.4866 22.6773,22.6773 0 1 1 29.5399,-12.4866 z"
       style="fill:#ffe39a;fill-opacity:0;fill-rule:evenodd"
       id="path161" />
    <path
       d="m 555.9113,201.1036 a 22.6773,22.6773 0 0 1 -29.5398,12.4866 22.6773,22.6773 0 1 1 29.5398,-12.4866 z"
       style="fill:#ffe39a;fill-opacity:0;fill-rule:evenodd"
       id="path163" />
    <path
       d="m 888.3271,373.5877 a 18.4253,18.4253 0 0 1 -24.0011,10.1454 18.4253,18.4253 0 1 1 24.0011,-10.1454 z"
       style="fill:#ffe39a;fill-opacity:0;fill-rule:evenodd"
       id="path165" />
    <path
       d="m 733.1079,297.3062 a 18.4253,18.4253 0 0 1 -24.0012,10.1454 18.4253,18.4253 0 1 1 24.0012,-10.1454 z"
       style="fill:#ffe39a;fill-opacity:0;fill-rule:evenodd"
       id="path167" />
    <path
       d="m 577.8886,221.0248 a 18.4253,18.4253 0 0 1 -24.0011,10.1454 18.4253,18.4253 0 1 1 24.0011,-10.1454 z"
       style="fill:#ffe39a;fill-opacity:0;fill-rule:evenodd"
       id="path169" />
    <path
       d="m 337.0849,178.6708 a 9.7011,9.7011 0 0 1 -12.6368,5.3416 9.7011,9.7011 0 1 1 12.6368,-5.3416 z"
       style="fill:#ffe39a;fill-opacity:0;fill-rule:evenodd"
       id="path171" />
    <path
       d="m 433.0076,174.6406 a 18.4253,18.4253 0 0 1 -24.0011,10.1454 18.4253,18.4253 0 1 1 24.0011,-10.1454 z"
       style="fill:#ffe39a;fill-opacity:0;fill-rule:evenodd"
       id="path173" />
    <path
       d="m 763.6014,182.3359 a 25.512,25.5119 0 0 1 9.338,34.85 25.512,25.5119 0 1 1 -9.338,-34.85 z"
       style="fill:#ffe39a;fill-rule:evenodd"
       id="path175" />
    <path
       d="m 458.1728,167.6879 a 25.512,25.5119 0 0 1 9.3381,34.8499 25.512,25.5119 0 1 1 -9.3381,-34.8499 z"
       style="fill:#ffe39a;fill-rule:evenodd"
       id="path177" />
    <path
       d="m 490.8132,133.4749 a 9.7011,9.7011 0 0 1 -12.6368,5.3416 9.7011,9.7011 0 1 1 12.6368,-5.3416 z"
       style="fill:#ffe39a;fill-opacity:0;fill-rule:evenodd"
       id="path179" />
    <path
       d="m 350.96,133.0809 a 9.7011,9.7011 0 0 1 -12.6368,5.3416 9.7011,9.7011 0 1 1 12.6368,-5.3416 z"
       style="fill:#ffe39a;fill-opacity:0;fill-rule:evenodd"
       id="path181" />
    <path
       d="m 861.5037,133.6994 a 9.7011,9.7011 0 0 1 -12.6368,5.3416 9.7011,9.7011 0 1 1 12.6368,-5.3416 z"
       style="fill:#ffe39a;fill-opacity:0;fill-rule:evenodd"
       id="path183" />
    <path
       d="m 878.9113,183.7473 a 9.7011,9.7011 0 0 1 -12.6368,5.3417 9.7011,9.7011 0 1 1 12.6368,-5.3417 z"
       style="fill:#ffe39a;fill-opacity:0;fill-rule:evenodd"
       id="path185" />
    <path
       d="m 896.3189,233.7953 a 9.7011,9.7011 0 0 1 -12.6368,5.3416 9.7011,9.7011 0 1 1 12.6368,-5.3416 z"
       style="fill:#ffe39a;fill-opacity:0;fill-rule:evenodd"
       id="path187" />
    <path
       d="m 977.0116,222.0542 a 9.7011,9.7011 0 0 1 -12.6368,5.3416 9.7011,9.7011 0 1 1 12.6368,-5.3416 z"
       style="fill:#ffe39a;fill-opacity:0;fill-rule:evenodd"
       id="path189" />
    <path
       d="m 955.0728,159.8119 a 9.7011,9.7011 0 0 1 -12.6368,5.3416 9.7011,9.7011 0 1 1 12.6368,-5.3416 z"
       style="fill:#ffe39a;fill-opacity:0;fill-rule:evenodd"
       id="path191" />
    <path
       d="m 890.5178,159.8119 a 9.7011,9.7011 0 0 1 -12.6369,5.3416 9.7011,9.7011 0 1 1 12.6369,-5.3416 z"
       style="fill:#ffe39a;fill-opacity:0;fill-rule:evenodd"
       id="path193" />
    <path
       d="m 825.9627,159.8119 a 9.7011,9.7011 0 0 1 -12.6368,5.3416 9.7011,9.7011 0 1 1 12.6368,-5.3416 z"
       style="fill:#ffe39a;fill-opacity:0;fill-rule:evenodd"
       id="path195" />
    <path
       d="m 761.4076,159.8119 a 9.7011,9.7011 0 0 1 -12.6368,5.3416 9.7011,9.7011 0 1 1 12.6368,-5.3416 z"
       style="fill:#ffe39a;fill-opacity:0;fill-rule:evenodd"
       id="path197" />
    <path
       d="m 714.586,183.5996 a 9.7011,9.7011 0 0 1 -12.6368,5.3417 9.7011,9.7011 0 1 1 12.6368,-5.3417 z"
       style="fill:#ffe39a;fill-opacity:0;fill-rule:evenodd"
       id="path199" />
    <path
       d="m 869.801,225.2828 a 9.7011,9.7011 0 0 1 -12.6368,5.3417 9.7011,9.7011 0 1 1 12.6368,-5.3417 z"
       style="fill:#ffe39a;fill-opacity:0;fill-rule:evenodd"
       id="path201" />
    <path
       d="m 1025.016,266.966 a 9.7011,9.7011 0 0 1 -12.6368,5.3416 9.7011,9.7011 0 1 1 12.6368,-5.3416 z"
       style="fill:#ffe39a;fill-opacity:0;fill-rule:evenodd"
       id="path203" />
    <path
       d="m 957.2436,270.5377 a 9.7011,9.7011 0 0 1 -12.6368,5.3416 9.7011,9.7011 0 1 1 12.6368,-5.3416 z"
       style="fill:#ffe39a;fill-opacity:0;fill-rule:evenodd"
       id="path205" />
    <path
       d="m 611.454,116.4618 a 22.6773,22.6773 0 0 1 2.6573,31.9602 22.6773,22.6773 0 1 1 -2.6573,-31.9602 z"
       style="fill:#ffe39a;fill-opacity:0;fill-rule:evenodd"
       id="path207" />
    <path
       d="m 487.4864,108.8712 a 22.6773,22.6773 0 0 1 2.6573,31.9602 22.6773,22.6773 0 1 1 -2.6573,-31.9602 z"
       style="fill:#ffe39a;fill-opacity:0;fill-rule:evenodd"
       id="path209" />
    <path
       d="m 1119.0989,359.7403 a 18.4253,18.4253 0 0 1 -9.7975,24.1452 18.4253,18.4253 0 1 1 9.7975,-24.1452 z"
       style="fill:#ffe39a;fill-opacity:0;fill-rule:evenodd"
       id="path211" />
    <path
       d="m 767.1239,120.0608 a 9.7011,9.7011 0 0 1 -12.6368,5.3416 9.7011,9.7011 0 1 1 12.6368,-5.3416 z"
       style="fill:#ffe39a;fill-opacity:0;fill-rule:evenodd"
       id="path213" />
    <path
       d="m 655.8261,102.397 a 9.7011,9.7011 0 0 1 -12.6368,5.3416 9.7011,9.7011 0 1 1 12.6368,-5.3416 z"
       style="fill:#ffe39a;fill-opacity:0;fill-rule:evenodd"
       id="path215" />
    <path
       d="m 424.8509,124.0846 a 9.7011,9.7011 0 0 1 -12.6368,5.3416 9.7011,9.7011 0 1 1 12.6368,-5.3416 z"
       style="fill:#ffe39a;fill-opacity:0;fill-rule:evenodd"
       id="path217" />
    <path
       d="m 304.7326,202.5144 a 9.7011,9.7011 0 0 1 -12.6368,5.3416 9.7011,9.7011 0 1 1 12.6368,-5.3416 z"
       style="fill:#ffe39a;fill-opacity:0;fill-rule:evenodd"
       id="path219" />
    <path
       d="m 616.7125,246.912 a 9.7011,9.7011 0 0 1 -12.6368,5.3416 9.7011,9.7011 0 1 1 12.6368,-5.3416 z"
       style="fill:#ffe39a;fill-opacity:0;fill-rule:evenodd"
       id="path221" />
    <path
       d="m 600.5006,419.0053 a 9.7011,9.7011 0 0 1 -12.6368,5.3417 9.7011,9.7011 0 1 1 12.6368,-5.3417 z"
       style="fill:#ffe39a;fill-opacity:0;fill-rule:evenodd"
       id="path223" />
    <path
       d="m 568.3373,377.7587 a 9.7011,9.7011 0 0 1 -12.6368,5.3416 9.7011,9.7011 0 1 1 12.6368,-5.3416 z"
       style="fill:#ffe39a;fill-opacity:0;fill-rule:evenodd"
       id="path225" />
    <path
       d="m 480.3663,90.3619 a 9.7011,9.7011 0 0 1 -12.6368,5.3416 9.7011,9.7011 0 1 1 12.6368,-5.3416 z"
       style="fill:#ffe39a;fill-opacity:0;fill-rule:evenodd"
       id="path227" />
    <path
       d="m 581.2145,93.6152 a 9.7011,9.7011 0 0 1 -12.6368,5.3417 9.7011,9.7011 0 1 1 12.6368,-5.3417 z"
       style="fill:#ffe39a;fill-opacity:0;fill-rule:evenodd"
       id="path229" />
    <path
       d="m 722.9664,94.2374 a 9.7011,9.7011 0 0 1 -12.6368,5.3417 9.7011,9.7011 0 1 1 12.6368,-5.3417 z"
       style="fill:#ffe39a;fill-opacity:0;fill-rule:evenodd"
       id="path231" />
    <path
       d="m 164.084,415.2081 a 9.7011,9.7011 0 0 1 -12.6368,5.3416 9.7011,9.7011 0 1 1 12.6368,-5.3416 z"
       style="fill:#ffe39a;fill-opacity:0;fill-rule:evenodd"
       id="path233" />
    <path
       d="m 704.5778,55.2086 a 9.7011,9.7011 0 0 1 -12.6369,5.3416 9.7011,9.7011 0 1 1 12.6369,-5.3416 z"
       style="fill:#ffe39a;fill-opacity:0;fill-rule:evenodd"
       id="path235" />
    <path
       d="m 619.2623,57.1132 a 9.7011,9.7011 0 0 1 -12.6368,5.3416 9.7011,9.7011 0 1 1 12.6368,-5.3416 z"
       style="fill:#ffe39a;fill-opacity:0;fill-rule:evenodd"
       id="path237" />
    <path
       d="m 502.6688,191.7254 a 9.7011,9.7011 0 0 1 -12.6368,5.3417 9.7011,9.7011 0 1 1 12.6368,-5.3417 z"
       style="fill:#ffe39a;fill-opacity:0;fill-rule:evenodd"
       id="path239" />
    <path
       d="m 335.1982,270.1609 a 9.7011,9.7011 0 0 1 -12.6368,5.3417 9.7011,9.7011 0 1 1 12.6368,-5.3417 z"
       style="fill:#ffe39a;fill-opacity:0;fill-rule:evenodd"
       id="path241" />
    <path
       d="m 1060.3957,246.6459 a 21.2562,21.2563 0 0 1 7.7803,29.0367 21.2562,21.2563 0 1 1 -7.7803,-29.0367 z"
       style="fill:#ffe39a;fill-rule:evenodd"
       id="path243" />
    <path
       d="m 664.3917,51.9389 a 21.2562,21.2563 0 0 1 7.7803,29.0367 21.2562,21.2563 0 1 1 -7.7803,-29.0367 z"
       style="fill:#ffe39a;fill-rule:evenodd"
       id="path245" />
    <path
       d="m 574.5269,54.9346 a 21.2562,21.2563 0 0 1 7.7803,29.0366 21.2562,21.2563 0 1 1 -7.7803,-29.0366 z"
       style="fill:#ffe39a;fill-rule:evenodd"
       id="path247" />
    <path
       d="m 534.2323,41.6698 a 9.7011,9.7011 0 0 1 -12.6368,5.3416 9.7011,9.7011 0 1 1 12.6368,-5.3416 z"
       style="fill:#ffe39a;fill-opacity:0;fill-rule:evenodd"
       id="path249" />
    <path
       d="m 411.8076,91.1607 a 9.7011,9.7011 0 0 1 -12.6368,5.3416 9.7011,9.7011 0 1 1 12.6368,-5.3416 z"
       style="fill:#ffe39a;fill-opacity:0;fill-rule:evenodd"
       id="path251" />
    <path
       d="m 386.6909,169.7319 a 18.4253,18.4253 0 0 1 -24.0011,10.1453 18.4253,18.4253 0 1 1 24.0011,-10.1453 z"
       style="fill:#ffe39a;fill-opacity:0;fill-rule:evenodd"
       id="path253" />
    <path
       d="m 843.7064,116.5344 a 18.4253,18.4253 0 0 1 -24.0011,10.1453 18.4253,18.4253 0 1 1 24.0011,-10.1453 z"
       style="fill:#ffe39a;fill-opacity:0;fill-rule:evenodd"
       id="path255" />
    <path
       d="m 1006.5233,190.6884 a 18.4253,18.4253 0 0 1 -24.0011,10.1454 18.4253,18.4253 0 1 1 24.0011,-10.1454 z"
       style="fill:#ffe39a;fill-opacity:0;fill-rule:evenodd"
       id="path257" />
    <path
       d="m 918.6666,113.3102 a 18.4253,18.4253 0 0 1 -24.0011,10.1454 18.4253,18.4253 0 1 1 24.0011,-10.1454 z"
       style="fill:#ffe39a;fill-opacity:0;fill-rule:evenodd"
       id="path259" />
    <path
       d="m 1046.6775,207.9413 a 9.7011,9.7011 0 0 1 -12.6368,5.3416 9.7011,9.7011 0 1 1 12.6368,-5.3416 z"
       style="fill:#ffe39a;fill-opacity:0;fill-rule:evenodd"
       id="path261" />
    <path
       d="m 1131.0097,331.0029 a 9.7011,9.7011 0 0 1 -12.6368,5.3416 9.7011,9.7011 0 1 1 12.6368,-5.3416 z"
       style="fill:#ffe39a;fill-opacity:0;fill-rule:evenodd"
       id="path263" />
    <path
       d="m 495.8628,66.6271 a 9.7011,9.7011 0 0 1 -12.6368,5.3417 9.7011,9.7011 0 1 1 12.6368,-5.3417 z"
       style="fill:#ffe39a;fill-opacity:0;fill-rule:evenodd"
       id="path265" />
    <path
       d="m 195.216,423.6958 a 9.7011,9.7011 0 0 1 -12.6368,5.3417 9.7011,9.7011 0 1 1 12.6368,-5.3417 z"
       style="fill:#ffe39a;fill-opacity:0;fill-rule:evenodd"
       id="path267" />
    <path
       d="m 540.1941,286.6716 a 9.7011,9.7011 0 0 1 -12.6368,5.3416 9.7011,9.7011 0 1 1 12.6368,-5.3416 z"
       style="fill:#ffe39a;fill-opacity:0;fill-rule:evenodd"
       id="path269" />
    <path
       d="m 602.3052,31.4557 a 9.7011,9.7011 0 0 1 -12.6368,5.3416 9.7011,9.7011 0 1 1 12.6368,-5.3416 z"
       style="fill:#ffe39a;fill-opacity:0;fill-rule:evenodd"
       id="path271" />
    <path
       d="m 659.5222,27.5246 a 9.7011,9.7011 0 0 1 -12.6368,5.3416 9.7011,9.7011 0 1 1 12.6368,-5.3416 z"
       style="fill:#ffe39a;fill-opacity:0;fill-rule:evenodd"
       id="path273" />
    <path
       d="m 731.8638,37.8592 a 9.7011,9.7011 0 0 1 -12.6368,5.3416 9.7011,9.7011 0 1 1 12.6368,-5.3416 z"
       style="fill:#ffe39a;fill-opacity:0;fill-rule:evenodd"
       id="path275" />
    <path
       d="m 742.1657,72.1048 a 9.7011,9.7011 0 0 1 -12.6368,5.3416 9.7011,9.7011 0 1 1 12.6368,-5.3416 z"
       style="fill:#ffe39a;fill-opacity:0;fill-rule:evenodd"
       id="path277" />
    <path
       d="m 868.9362,75.5498 a 9.7011,9.7011 0 0 1 -12.6368,5.3416 9.7011,9.7011 0 1 1 12.6368,-5.3416 z"
       style="fill:#ffe39a;fill-opacity:0;fill-rule:evenodd"
       id="path279" />
    <path
       d="m 967.4585,121.0217 a 9.7011,9.7011 0 0 1 -12.6368,5.3416 9.7011,9.7011 0 1 1 12.6368,-5.3416 z"
       style="fill:#ffe39a;fill-opacity:0;fill-rule:evenodd"
       id="path281" />
    <path
       d="m 1102.4965,273.9727 a 9.7011,9.7011 0 0 1 -12.6368,5.3416 9.7011,9.7011 0 1 1 12.6368,-5.3416 z"
       style="fill:#ffe39a;fill-opacity:0;fill-rule:evenodd"
       id="path283" />
    <path
       d="m 338.4914,408.1139 a 22.6773,22.6773 0 0 1 31.9602,-2.6573 22.6773,22.6773 0 1 1 -31.9602,2.6573 z"
       style="fill:#ffe39a;fill-opacity:0;fill-rule:evenodd"
       id="path285" />
    <path
       d="m 323.8181,382.3351 a 18.4253,18.4253 0 0 1 25.9677,-2.1591 18.4253,18.4253 0 1 1 -25.9677,2.1591 z"
       style="fill:#ffe39a;fill-opacity:0;fill-rule:evenodd"
       id="path287" />
  </g>
  <path
     d="m 1128.6951,567.6892 122.4995,-99.8078 c 4.1219,-3.2276 8.6023,-6.4389 9.2109,-12.1043 0.4294,-3.996 -2.6708,-8.092 -6.1013,-11.5001 -5.6313,-5.5945 -13.9493,-3.577 -17.5076,-0.6684 l -4.4334,3.6122 c -9.8657,7.5175 -37.6617,26.0966 -79.4239,33.2266 -27.8918,4.7616 -52.1876,7.2977 -72.5052,8.6451 -20.8153,1.3804 -37.1151,1.5531 -49.0175,1.5712 -11.4123,0.0176 -25.8888,-0.6763 -40.8782,-1.7671 -17.179,-1.2504 -34.2241,-2.9639 -47.6821,-4.6979 -24.3082,-3.1317 -108.921,-22.977 -115.7681,-24.5874 -3.1878,-0.8958 -45.2279,-12.3157 -86.6202,-2.8752 -28.6951,6.5446 -65.5739,27.8952 -86.2384,40.8889 -20.6646,-12.9937 -57.5433,-34.3443 -86.2385,-40.8889 -41.3923,-9.4405 -83.4324,1.9794 -86.6202,2.8752 -6.8471,1.6104 -91.4599,21.4557 -115.7681,24.5874 -13.458,1.734 -30.503,3.4475 -47.6821,4.6979 -14.9893,1.0908 -29.4659,1.7847 -40.8782,1.7671 -11.9024,-0.0181 -28.2021,-0.1908 -49.0175,-1.5712 -20.3176,-1.3474 -44.6134,-3.8835 -72.5051,-8.6451 -41.7623,-7.13 -69.3635,-25.9609 -79.5836,-33.02 l -5.5675,-3.8188 c -4.1091,-2.5781 -10.5829,-4.9261 -16.2139,0.6684 -3.4305,3.4078 -6.5307,7.5041 -6.1013,11.5001 0.6086,5.6654 5.0891,8.8767 9.2109,12.1043 l 122.4995,99.8078 17.6094,-21.6561 -46.6991,-38.0486 0.1423,0.0252 c 28.8544,4.9261 54.1828,7.5623 75.4583,8.9734 20.7777,1.3779 38.0429,1.5517 50.7676,1.5712 12.7659,0.0196 27.8331,-0.6743 42.8471,-1.7671 16.9234,-1.2319 34.5776,-3.0311 49.2134,-4.9167 27.5077,-3.5441 118.8046,-25.0699 119.0676,-25.1316 l 0.6563,-0.1642 c 0.1071,-0.0303 37.1409,-10.7912 73.0391,-2.6039 36.758,8.3835 92.2031,46.8904 92.3636,47.0013 0.1604,-0.1109 55.6055,-38.6178 92.3635,-47.0013 35.8982,-8.1873 72.932,2.5736 73.0392,2.6039 l 0.6562,0.1642 c 0.263,0.0617 91.5599,21.5875 119.0676,25.1316 14.6358,1.8856 32.29,3.6848 49.2134,4.9167 15.014,1.0928 30.0813,1.7867 42.8471,1.7671 12.7247,-0.0195 29.99,-0.1933 50.7676,-1.5712 21.2755,-1.4111 46.6039,-4.0473 75.4583,-8.9734 l 0.1423,-0.0252 -46.6991,38.0486 z"
     style="fill:#ffe39a;fill-rule:evenodd"
     id="path290" />
  <path
     d="m 746.22,585.2998 c -1.5468,3.8403 -3.7312,8.1221 -6.0168,11.4647 -7.9412,11.6149 -20.205,19.5069 -33.1557,24.514 -14.292,5.5256 -30.2026,7.9106 -45.485,7.8514 -15.2538,-0.0592 -31.1159,-2.5557 -45.3881,-8.0351 -12.6144,-4.8427 -24.9412,-12.4438 -32.8955,-23.599 -2.8031,-3.9313 -5.4912,-7.9784 -7.8485,-12.196 H 142.7481 v -44.6843 h 1022.9627 v 44.6843 z"
     style="fill:#4c4c8a;fill-rule:evenodd"
     id="path292" />
  <path
     d="m 144.1654,542.0329 h 1020.128 v 41.8495 H 745.2543 c -2.0242,5.2813 -4.9442,10.2147 -6.2209,12.0822 -29.4358,43.0525 -125.6052,41.3725 -154.6005,0.7083 -1.3739,-1.9267 -5.072,-7.1334 -8.1669,-12.7905 H 144.1654 Z"
     style="fill:#575793;fill-rule:evenodd"
     id="path294" />
  <path
     d="m 1125.4939,479.4626 28.1322,-25.852 c 4.0827,-3.7519 4.8702,-9.7625 1.8918,-14.4394 l -1.5431,-2.423 c -2.8761,-4.5162 -8.3348,-6.3885 -13.377,-4.5879 -16.0827,5.7447 -52.8571,17.1853 -89.6732,16.7695 -47.3729,-0.5349 -105.9922,-13.1508 -118.8907,-15.9268 -0.2829,-0.0609 -0.0731,-0.0158 -3e-4,9e-4 l -1.7444,-0.3654 c -3.9663,-0.8391 -21.9515,-6.717 -38.217,-12.0328 -13.1638,-4.3021 -25.2269,-8.2446 -29.1127,-9.1961 -0.6791,-0.1664 -1.8518,-0.5097 -3.338,-0.9445 -13.2948,-3.8917 -46.7552,-10.4664 -72.7013,-1.2365 -28.6336,11.7085 -44.3622,22.2814 -68.9831,41.4879 h 32.504 c 0.0615,-0.0355 29.6637,-15.9662 46.2762,-22.9366 18.3004,-6.2266 45.803,0.5199 56.8029,3.7398 1.7957,0.5252 3.2113,0.9399 4.2831,1.2024 2.619,0.6412 14.5066,4.5264 27.4799,8.7665 16.7213,5.4646 35.2103,11.5075 40.5374,12.6343 2.1768,0.46 -0.3985,-0.078 1.6586,0.3645 13.2347,2.8482 73.3822,15.7929 123.2736,16.3565 20.8956,0.2361 41.7067,-2.9974 59.3212,-7.0297 l -17.0285,15.6484 z M 932.0336,433.0045 c 0.0255,0.005 0.034,0.007 0,0 z m -749.0687,46.4581 -28.1322,-25.852 c -4.0827,-3.7519 -4.8702,-9.7625 -1.8918,-14.4394 l 1.5432,-2.423 c 2.876,-4.5162 8.3347,-6.3885 13.377,-4.5879 16.0826,5.7447 52.857,17.1853 89.6731,16.7695 47.3729,-0.5349 105.9922,-13.1508 118.8907,-15.9268 0.2829,-0.0609 0.0732,-0.0158 3e-4,9e-4 l 1.7445,-0.3654 c 3.9662,-0.8391 21.9514,-6.717 38.2169,-12.0328 13.1638,-4.3021 25.227,-8.2446 29.1127,-9.1961 0.6792,-0.1664 1.8519,-0.5097 3.3381,-0.9445 13.2947,-3.8917 46.7552,-10.4664 72.7013,-1.2365 28.6336,11.7085 44.3622,22.2814 68.983,41.4879 h -32.504 c -0.0615,-0.0355 -29.6637,-15.9662 -46.2761,-22.9366 -18.3005,-6.2266 -45.8031,0.5199 -56.8029,3.7398 -1.7958,0.5252 -3.2114,0.9399 -4.2832,1.2024 -2.6189,0.6412 -14.5066,4.5264 -27.4799,8.7665 -16.7213,5.4646 -35.2103,11.5075 -40.5374,12.6343 -2.1767,0.46 0.3985,-0.078 -1.6586,0.3645 -13.2346,2.8482 -73.3821,15.7929 -123.2736,16.3565 -20.8956,0.2361 -41.7067,-2.9974 -59.3212,-7.0297 l 17.0286,15.6484 z m 193.4603,-46.4581 c -0.0255,0.005 -0.034,0.007 0,0 z"
     style="fill:#ffe39a;fill-rule:evenodd"
     id="path296" />
  <path
     d="m 656.4993,133.1698 c 12.7811,0 23.1443,10.2725 23.1443,22.9456 0,10.3076 -6.8573,19.0273 -16.2933,21.9229 v 8.2295 l 0.18,-0.4473 c 0.0697,0.0233 26.3991,8.2497 37.0908,22.3158 1.2064,1.5871 2.2873,3.0115 3.2553,4.2908 1.5245,-0.8323 3.2465,-1.77 5.1933,-2.8267 15.5277,-8.4297 42.9118,-5.1101 42.9849,-5.1021 l -0.0193,0.4816 3.3815,-7.5025 c -7.4129,-6.5174 -10.0806,-17.2845 -5.8445,-26.6816 5.2078,-11.5535 18.8768,-16.6601 30.5288,-11.4078 11.653,5.2526 16.8787,18.8762 11.6706,30.4302 -4.2361,9.3974 -14.0695,14.5284 -23.8635,13.29 l -3.2029,7.105 c 0.8173,0.7319 20.7253,18.6752 24.6153,35.5612 0.4872,2.1147 0.9172,3.9909 1.2977,5.6588 1.7815,-0.0986 3.8035,-0.2081 6.0978,-0.3291 17.6437,-0.9329 40.9383,13.841 41.0009,13.879 l -0.2248,0.4269 6.2799,-5.3189 c -3.8894,-9.072 -1.6679,-19.9401 6.1974,-26.602 9.6704,-8.191 24.207,-6.9228 32.4677,2.8301 8.2613,9.7531 7.1204,24.3 -2.55,32.4912 -7.8661,6.6623 -18.9502,7.066 -27.2597,1.7357 l -5.9468,5.0372 c 0.4227,1.0119 10.6793,25.7728 6.9299,42.6906 l -0.4771,2.1478 c 1.9715,0.5165 4.2733,1.1239 6.9594,1.8371 17.0764,4.5323 34.7068,25.748 34.7547,25.8038 l -0.345,0.3368 7.6099,-3.1326 c -0.9147,-9.828 4.5383,-19.4879 14.0701,-23.4116 11.719,-4.8243 25.1628,0.8481 30.0282,12.6669 4.8657,11.8202 -0.6888,25.3131 -12.4081,30.1371 -9.5323,3.924 -20.2045,0.9028 -26.4744,-6.7224 l -7.2071,2.9667 c 0.0913,1.0931 2.2456,27.8074 -6.5206,42.7553 l -0.9833,1.6758 h -13.2602 c 1.2405,-2.0982 2.8503,-4.833 4.936,-8.3914 5.2013,-8.8645 5.4439,-24.205 5.2106,-31.6692 l -29.9355,12.3233 c -0.001,0.005 -0.8405,2.2096 -7.3466,17.3129 -1.6084,3.7386 -4.0153,7.2417 -6.7711,10.4244 h -16.9342 c 5.326,-4.1383 11.1107,-9.7132 13.7775,-15.914 3.568,-8.2828 5.3728,-12.5708 6.2601,-14.714 -2.1699,-0.8065 -6.433,-2.3723 -14.6345,-5.3337 -13.2545,-4.7741 -33.8227,2.3604 -33.8757,2.3822 l -4.0736,-11.1089 c 0.0643,-0.0222 24.0176,-8.322 40.7443,-2.3236 15.2728,5.4944 17.7851,6.5375 17.7934,6.5407 l 29.855,-12.2899 c -5.017,-5.4094 -16.1144,-16.331 -26.1524,-18.9927 -3.0314,-0.8053 -5.5324,-1.4661 -7.5938,-2.0075 -0.9677,4.1921 -1.222,5.1194 -1.2237,5.1245 l -10.5806,-4.8399 c 0.002,-0.004 0.4445,-1.6929 2.9027,-12.7267 l 0.0774,-1.5942 c 10e-4,2e-4 0.074,0.0156 0.2639,0.0598 l 0.6333,-2.8539 c 2.2263,-10.0338 -2.2553,-24.7074 -4.7705,-31.7384 l -24.7022,20.9233 c 3e-4,0.005 -0.1208,2.361 -1.6727,18.7328 -1.6753,17.763 -19.3122,35.9447 -19.3598,35.9929 l -8.3444,-8.3648 c 0.0414,-0.0399 15.2434,-15.72 16.5703,-29.8026 0.8509,-8.9787 1.2512,-13.6136 1.4368,-15.9256 -2.3125,-0.1009 -6.8507,-0.2812 -15.565,-0.5797 -14.0803,-0.4719 -31.462,12.6363 -31.506,12.6735 l -7.2892,-9.3204 0.0195,-0.0144 -7.4069,-2.6377 c 0.0201,-0.0535 7.0018,-20.747 2.1433,-34.0313 -3.0929,-8.4722 -4.7251,-12.8287 -5.5517,-14.9958 -2.1314,0.9034 -6.3057,2.6923 -14.3016,6.1704 -12.9147,5.6293 -22.97,24.9384 -22.9935,24.9905 l -9.8731,-4.9226 0.009,0.1511 -11.823,0.462 c 0,-0.0575 -1.2319,-21.793 -10.6923,-32.2322 -5.8603,-6.4567 -8.9308,-9.803 -10.5029,-11.5024 -1.6435,1.6356 -4.9224,4.9374 -11.2235,11.3893 -9.8884,10.1146 -12.0274,31.8487 -12.0314,31.9062 l -11.3913,-0.9294 0.0525,0.098 -10.5891,5.2801 c -0.0238,-0.0521 -10.0789,-19.3614 -22.9933,-24.9908 -7.9959,-3.4781 -12.1705,-5.267 -14.3019,-6.1704 -0.8266,2.1671 -2.4585,6.5236 -5.5516,14.9955 -4.8583,13.2849 2.1234,33.9781 2.143,34.0319 l -10.6073,3.7769 -6.6438,8.4955 c -0.044,-0.0369 -17.4257,-13.1454 -31.506,-12.6732 -8.7148,0.2982 -13.2528,0.4785 -15.565,0.5794 0.1856,2.312 0.5859,6.9472 1.4366,15.9256 1.3269,14.0831 16.5291,29.7627 16.5702,29.8029 l -8.3444,8.3642 c -0.047,-0.0479 -17.6839,-18.2293 -19.3597,-35.9923 -1.5517,-16.3718 -1.6733,-18.7285 -1.6722,-18.7328 l -24.7034,-20.9236 c -2.5146,7.031 -6.9962,21.7046 -4.7701,31.7384 3.3211,14.9932 3.8758,17.1102 3.8775,17.115 l -2.1348,0.9765 0.027,0.5485 c -0.002,0 -0.5035,0.112 -2.6995,0.6738 l -5.773,2.6408 c -9e-4,-0.003 -0.0689,-0.2517 -0.2687,-1.0704 -2.1793,0.572 -4.8844,1.2858 -8.2415,2.1776 -10.0386,2.6623 -21.1354,13.5833 -26.1527,18.9921 l 29.8553,12.2899 c 0.008,-0.003 2.5203,-1.046 17.7928,-6.5407 16.727,-5.9975 40.6803,2.3021 40.7449,2.3239 l -4.0739,11.109 c -0.0525,-0.0219 -20.6212,-7.1564 -33.8752,-2.3817 -8.2017,2.9611 -12.4651,4.5269 -14.6344,5.3337 0.887,2.1424 2.6915,6.4309 6.2595,14.7135 1.8428,4.2845 5.1749,8.2706 8.8149,11.6903 H 459.721 c -1.3674,-1.9783 -2.558,-4.0501 -3.4832,-6.2002 -6.5061,-15.1038 -7.3457,-17.3089 -7.3463,-17.3132 l -29.9361,-12.3233 c -0.233,7.4639 0.01,22.8044 5.2109,31.6692 0.902,1.5387 1.7138,2.9214 2.4466,4.1675 h -13.0915 c -7.1978,-15.2407 -5.2696,-39.1739 -5.1835,-40.2077 l -7.2065,-2.9662 c -6.2705,7.6252 -16.9421,10.6464 -26.4747,6.7221 -11.7193,-4.8237 -17.2744,-18.3166 -12.4084,-30.1368 4.8657,-11.8191 18.3093,-17.4912 30.0291,-12.6669 9.5312,3.9231 14.9842,13.5836 14.0698,23.4113 l 7.6099,3.1326 -0.3447,-0.3365 c 0.0476,-0.0561 17.6777,-21.2717 34.7541,-25.8038 2.9639,-0.7869 5.4601,-1.4451 7.5603,-1.9947 -0.4045,-1.8026 -0.8631,-3.8605 -1.3847,-6.2141 -3.75,-16.9178 6.5064,-41.6787 6.9293,-42.6909 l -5.9471,-5.0369 c -8.3095,5.3303 -19.3935,4.9266 -27.2594,-1.7357 -9.6706,-8.1912 -10.8119,-22.7378 -2.55,-32.4912 8.2613,-9.7529 22.7973,-11.0211 32.4677,-2.8301 7.8653,6.6619 10.0868,17.5303 6.198,26.6017 l 6.2796,5.3189 -0.2254,-0.4263 c 0.0629,-0.0386 23.3578,-14.8122 41.0012,-13.8793 3.4319,0.1811 6.2538,0.3359 8.5734,0.4677 0.4045,-1.775 0.8668,-3.7956 1.3975,-6.0973 3.8897,-16.8863 23.7977,-34.8296 24.6146,-35.5618 l -3.2026,-7.1047 c -9.7943,1.2384 -19.6274,-3.8926 -23.8637,-13.29 -5.2081,-11.554 0.0175,-25.1776 11.6708,-30.4302 11.6521,-5.2526 25.321,-0.146 30.5288,11.4081 4.2364,9.3968 1.5679,20.1639 -5.8445,26.6813 l 3.3818,7.5025 -0.0196,-0.4816 c 0.0732,-0.008 27.4572,-3.3276 42.9846,5.1021 2.8139,1.5273 5.1593,2.806 7.1147,3.8766 1.1083,-1.4658 2.3743,-3.1357 3.8225,-5.0405 10.4856,-13.796 36.0085,-21.9728 37.0542,-22.3047 v -7.7933 c -9.4377,-2.8956 -16.2941,-11.6144 -16.2941,-21.9229 0,-12.6731 10.3626,-22.9456 23.1449,-22.9456 z M 793.134,262.7381 c 0.2421,1.1463 0.3016,1.4796 0.3019,1.4828 l -11.6334,0.1808 c 0,-0.002 -0.0414,-0.2185 -0.2069,-0.9896 -0.5474,0.038 -0.711,0.0533 -0.7121,0.0539 l -3.0333,-11.2334 c 0.003,-3e-4 0.2814,-0.0292 1.2081,-0.097 -0.3311,-1.4456 -0.7013,-3.0557 -1.1154,-4.8526 -2.3052,-10.0165 -12.6613,-21.3361 -17.9558,-26.6026 l -13.3036,29.5135 c 0.002,0.004 0.9065,2.1835 6.5461,17.6312 4.4566,12.1898 1.3833,28.2093 -0.6316,36.0621 7.1495,-4.4756 20.6444,-11.6762 32.9494,-11.2816 16.2218,0.5369 18.9331,0.758 18.9422,0.7585 l 24.6356,-20.8672 c -6.4361,-3.6062 -20.3519,-10.5905 -30.7222,-10.0403 -1.9649,0.1034 -3.7128,0.197 -5.269,0.2815 z m -82.3348,-41.0724 c 0.9127,1.2425 1.1528,1.5928 1.1545,1.5957 l -10.5324,4.9461 c -6e-4,-0.001 -0.1485,-0.2137 -0.7197,-0.9867 -0.4694,0.2653 -0.6089,0.3481 -0.6097,0.3489 l -7.5688,-8.8372 c 0.002,-0.002 0.2798,-0.1713 1.2492,-0.7212 -0.8683,-1.1455 -1.832,-2.4151 -2.9038,-3.825 -6.2833,-8.2687 -20.6065,-14.3731 -27.5182,-16.9532 v 32.2855 c 0.006,0.006 1.9267,1.9321 12.8211,13.9637 10.1344,11.2156 12.6919,31.2007 13.2321,36.9629 2.5765,-4.5844 13.2787,-22.3806 27.4309,-28.5738 14.8762,-6.4919 17.4186,-7.4582 17.4271,-7.4616 l 13.2676,-29.433 c -7.3616,-0.4884 -22.9286,-0.8095 -32.0542,4.1468 -1.7464,0.9482 -3.2972,1.791 -4.6757,2.5421 z m -152.017,84.3322 c -1.8416,-6.4469 -6.2643,-24.8519 -1.2849,-38.4727 5.6401,-15.448 6.5438,-17.6278 6.5463,-17.6312 L 550.74,220.3802 c -5.2945,5.2665 -15.6506,16.5864 -17.9557,26.6023 -3.4498,14.9644 -3.8597,17.1139 -3.86,17.1193 l -11.6334,-0.1808 c 3e-4,-0.003 0.0445,-0.2503 0.2104,-1.0469 -2.1107,-0.1168 -4.6642,-0.2551 -7.7519,-0.4175 -10.3706,-0.5499 -24.2861,6.4341 -30.7222,10.04 l 24.6359,20.8675 c 0.009,-5e-4 2.7198,-0.2216 18.9417,-0.7588 14.5448,-0.466 30.7539,9.6803 36.1774,13.3926 z m 62.7636,-25.4534 c 0.4473,-3.7786 3.4968,-25.8191 14.8896,-37.4743 11.4896,-11.7655 13.2094,-13.381 13.2131,-13.3835 v -32.3731 c -6.9908,2.6254 -21.0841,8.6893 -27.3016,16.8732 -9.2945,12.225 -10.5514,14.0162 -10.5537,14.0207 l -10.5315,-4.9456 c 10e-4,-0.002 0.1391,-0.2041 0.6023,-0.841 -1.815,-0.9907 -3.9937,-2.1767 -6.6115,-3.5972 -9.1262,-4.9561 -24.6926,-4.6355 -32.0542,-4.1473 l 13.2676,29.4332 c 0.008,0.003 2.5506,0.9698 17.4268,7.4614 14.6061,6.3921 25.5379,25.1427 27.6531,28.9735 z"
     style="fill:#575793;fill-rule:evenodd"
     id="path298" />
  <path
     d="m 124.3977,506.3787 13.9989,10.4992 c 1.2498,0.9375 1.5044,2.7187 0.5669,3.9685 l -2.4003,3.2004 c -0.9375,1.2498 -2.7187,1.504 -3.9685,0.5669 l -13.9989,-10.4993 c -1.2498,-0.9374 -1.5044,-2.7187 -0.567,-3.9685 l 2.4004,-3.2003 c 0.9374,-1.2498 2.7187,-1.504 3.9685,-0.5669 z M 82.8384,472.662 c 0.9947,0.6571 1.9913,1.3113 2.99,1.9624 6.3779,4.1593 12.9138,7.7732 19.8269,10.9619 6.8378,3.1538 13.8804,5.8765 20.8922,8.6148 l 1.0032,0.3917 c 1.4533,0.5675 2.1776,2.2187 1.6095,3.672 l -1.4618,3.7412 c -0.5675,1.4527 -2.2181,2.1761 -3.6712,1.6089 l -1.0043,-0.392 c -7.2496,-2.8298 -14.5253,-5.6455 -21.5912,-8.9136 -7.2788,-3.3664 -14.1582,-7.1915 -20.8763,-11.5727 -1.0497,-0.6846 -2.0965,-1.3737 -3.1405,-2.067 -0.6526,-0.4334 -1.0709,-1.0636 -1.2169,-1.8335 -0.1452,-0.7667 0.0144,-1.5114 0.4614,-2.1512 l 2.2924,-3.2814 c 0.8782,-1.2571 2.6071,-1.5868 3.8866,-0.7415 z m 63.4487,26.0147 -0.6573,-0.2041 c -12.8404,-3.9844 -25.5189,-9.2532 -37.7249,-14.8884 -13.8634,-6.4004 -27.6857,-13.5244 -40.9022,-21.1839 -0.6701,-0.3883 -1.1226,-0.9816 -1.3198,-1.7306 -0.1968,-0.7469 -0.0947,-1.4893 0.2959,-2.1557 l 2.0242,-3.452 c 0.7863,-1.3408 2.5206,-1.7983 3.8659,-1.0191 12.954,7.5042 26.5062,14.4746 40.0924,20.7471 11.8128,5.4538 24.0837,10.5752 36.5162,14.4331 l 0.0691,0.0216 0.0323,0.0224 20.9554,6.6849 c 1.486,0.4745 2.3114,2.0696 1.8403,3.5564 l -1.2073,3.8103 c -0.2336,0.7367 -0.7132,1.3065 -1.3994,1.6617 -0.6869,0.3551 -1.4287,0.4175 -2.1649,0.1825 z m 338.8952,-31.5389 c 7.9342,-1.1656 15.899,-2.2098 23.8658,-3.1257 5.4439,-0.6259 10.8989,-1.19 16.3607,-1.6401 5.0474,-0.4159 10.1381,-0.7524 15.2028,-0.8292 10.7937,-0.1635 21.7479,0.5599 32.3368,2.7255 9.0932,1.8598 18.0436,4.8206 26.1683,9.3541 8.2803,4.6205 16.4962,9.3892 24.6804,14.1777 6.4868,3.7951 13.0691,7.5983 19.4377,11.5855 0.6551,0.4102 1.0868,1.0174 1.2592,1.7711 0.172,0.7535 0.047,1.4876 -0.3646,2.1416 l -2.1353,3.3916 c -0.8274,1.3142 -2.5869,1.7164 -3.903,0.8927 -6.3162,-3.9538 -12.8452,-7.7256 -19.2785,-11.4891 -8.0912,-4.7339 -16.2136,-9.4493 -24.3997,-14.0171 -7.253,-4.0473 -15.283,-6.6696 -23.3989,-8.3296 -9.9105,-2.0268 -20.1815,-2.6878 -30.2828,-2.5344 -4.8784,0.0739 -9.7858,0.4056 -14.6472,0.811 -5.3351,0.4447 -10.6639,1.0012 -15.9823,1.6168 -7.8434,0.9077 -15.6846,1.9409 -23.4972,3.0887 -1.5421,0.2265 -2.9826,-0.8428 -3.2142,-2.3837 l -0.5981,-3.9818 c -0.1148,-0.7648 0.0652,-1.4874 0.5258,-2.1087 0.4603,-0.6214 1.0993,-1.0046 1.8643,-1.1169 z m 38.405,8.8407 c 9.3024,-1.4008 18.8509,-1.3266 28.1602,-0.0232 9.8694,1.3819 20.1356,4.2415 29.088,8.6698 l 14.8079,7.3247 c 1.3989,0.6919 1.9757,2.3958 1.2852,3.7953 l -1.7753,3.5977 c -0.6914,1.4012 -2.3981,1.9789 -3.7987,1.2861 l -14.8045,-7.323 c -8.0323,-3.9731 -17.2789,-6.5203 -26.1321,-7.7599 -8.3613,-1.1707 -16.9395,-1.2449 -25.2963,0.006 -1.5203,0.2276 -2.9478,-0.8017 -3.212,-2.3159 l -0.6925,-3.9665 c -0.1346,-0.7708 0.0349,-1.5095 0.4924,-2.1445 0.4578,-0.6358 1.103,-1.0298 1.8777,-1.1466 z m 18.9141,17.4895 c 5.0777,0.2517 10.258,1.0636 15.1866,2.3 4.7036,1.1801 9.3459,2.7967 13.7033,4.9318 0.7087,0.3472 1.207,0.9232 1.4499,1.6738 0.2427,0.7506 0.1752,1.5098 -0.1961,2.2059 l -1.8845,3.5329 c -0.7166,1.3436 -2.3689,1.881 -3.7389,1.216 -3.7154,-1.8034 -7.6839,-3.1569 -11.6853,-4.1607 -4.2741,-1.0723 -8.7673,-1.8034 -13.1709,-2.0347 -1.5182,-0.0799 -2.7039,-1.3436 -2.6861,-2.8638 l 0.0471,-4.0034 c 0.009,-0.7906 0.3166,-1.4899 0.8926,-2.0316 0.5746,-0.5405 1.2943,-0.8053 2.0823,-0.7662 z"
     style="fill:#f29e0c;fill-rule:evenodd"
     id="path300" />
  <path
     d="m 542.4592,494.3173 c 4.32,0.2143 9.591,0.9133 15.0219,2.2756 4.4836,1.1251 9.133,2.7131 13.536,4.8705 0.5015,0.2458 0.843,0.6404 1.0148,1.1719 0.1718,0.5312 0.1256,1.0513 -0.1372,1.544 l -1.8844,3.5328 c -0.5018,0.9408 -1.658,1.317 -2.6173,0.8513 -3.7964,-1.8426 -7.8732,-3.223 -11.8496,-4.2205 -4.8912,-1.2272 -9.5517,-1.8604 -13.3334,-2.0591 -1.063,-0.0559 -1.8927,-0.9403 -1.8802,-2.0047 l 0.0471,-4.0034 c 0.007,-0.5595 0.2171,-1.0386 0.6247,-1.4221 0.4076,-0.3833 0.8986,-0.5641 1.4576,-0.5363 z"
     style="fill:#f3a319;fill-rule:evenodd"
     id="path302" />
  <path
     d="m 523.714,476.8196 c 9.555,-1.4392 19.0788,-1.2595 27.9156,-0.0221 11.103,1.5545 21.1512,4.7919 28.8289,8.5898 l 14.8079,7.3247 c 0.9791,0.4842 1.383,1.6773 0.8997,2.6566 l -1.7753,3.5978 c -0.4839,0.9808 -1.679,1.385 -2.6592,0.9003 l -14.8045,-7.3231 c -6.9883,-3.4568 -16.1805,-6.4102 -26.3911,-7.8397 -8.0896,-1.1328 -16.8027,-1.3009 -25.5402,0.007 -1.0641,0.1594 -2.0633,-0.5612 -2.2484,-1.6211 l -0.6925,-3.9665 c -0.0956,-0.5462 0.0204,-1.0511 0.3446,-1.5012 0.324,-0.4499 0.766,-0.72 1.3145,-0.8025 z"
     style="fill:#f3a319;fill-rule:evenodd"
     id="path304" />
  <path
     d="m 485.3059,467.9792 c 7.8395,-1.1512 37.2921,-5.3124 55.3187,-5.586 11.0622,-0.1678 21.9586,0.6231 32.1534,2.7082 9.3577,1.9137 18.1338,4.9167 25.9243,9.2637 13.5147,7.5412 37.5661,21.6623 44.0812,25.7414 0.4638,0.2902 0.7594,0.7061 0.8813,1.2396 0.1219,0.5334 0.0363,1.0363 -0.2551,1.4992 l -2.1353,3.3917 c -0.5811,0.9229 -1.8074,1.2036 -2.7321,0.6247 -6.4836,-4.0586 -30.4117,-18.1049 -43.715,-25.528 -7.0492,-3.9333 -15.0574,-6.6642 -23.6429,-8.42 -9.614,-1.9664 -19.9438,-2.7113 -30.4662,-2.5517 -17.3577,0.2633 -46.4675,4.3835 -54.2373,5.5255 -1.0789,0.1579 -2.0877,-0.5904 -2.2496,-1.6687 l -0.5981,-3.9818 c -0.0813,-0.5415 0.042,-1.0361 0.3679,-1.476 0.326,-0.4397 0.7634,-0.7019 1.3048,-0.7818 z"
     style="fill:#f3a319;fill-rule:evenodd"
     id="path306" />
  <path
     d="m 71.4426,454.7788 c 8.6734,5.0247 23.5511,13.1142 40.1624,20.7833 11.9446,5.5145 24.7291,10.7833 36.6205,14.4732 l 0.0311,0.0158 21.0192,6.7111 c 1.0395,0.3319 1.6178,1.449 1.2881,2.4893 l -1.2073,3.8104 c -0.1652,0.5215 -0.4938,0.9116 -0.9796,1.163 -0.4862,0.2515 -0.9941,0.2943 -1.5154,0.1279 l -20.9781,-6.6977 -0.002,0.005 C 133.5681,493.8392 120.4553,488.4412 108.2609,482.8116 91.4625,475.056 76.294,466.8018 67.4287,461.664 c -0.4742,-0.2749 -0.7841,-0.6811 -0.9238,-1.2112 -0.1395,-0.5301 -0.07,-1.0361 0.2072,-1.5089 l 2.0242,-3.452 c 0.5508,-0.9394 1.7634,-1.2592 2.706,-0.7135 z"
     style="fill:#f3a319;fill-rule:evenodd"
     id="path308" />
  <path
     d="m 82.3696,473.3715 c 0.7733,0.5108 1.7943,1.1829 2.9942,1.9653 14.1622,9.2358 25.3715,13.6085 40.8745,19.6563 l 1.0031,0.3917 c 1.0182,0.3974 1.5245,1.5523 1.1268,2.5705 l -1.4618,3.7411 c -0.3977,1.0179 -1.552,1.5236 -2.5699,1.1262 l -1.0043,-0.392 C 107.4137,496.221 95.9039,491.7309 81.02,482.0243 c -1.2147,-0.792 -2.3017,-1.5098 -3.1346,-2.0631 -0.462,-0.3067 -0.7486,-0.7384 -0.8518,-1.2832 -0.1032,-0.5451 0.0051,-1.0514 0.3229,-1.5061 l 2.2924,-3.2814 c 0.6157,-0.8813 1.8238,-1.1117 2.7207,-0.519 z"
     style="fill:#f3a319;fill-rule:evenodd"
     id="path310" />
  <path
     d="m 123.8875,507.059 13.9989,10.4993 c 0.8742,0.6556 1.0525,1.9037 0.3968,2.7779 l -2.4003,3.2003 c -0.6557,0.8742 -1.9038,1.0525 -2.778,0.3969 L 119.106,513.4341 c -0.8742,-0.6556 -1.0525,-1.9037 -0.3969,-2.7779 l 2.4004,-3.2003 c 0.6557,-0.8742 1.9038,-1.0525 2.778,-0.3969 z"
     style="fill:#f3a319;fill-rule:evenodd"
     id="path312" />
  <g
     id="Layer1002">
    <path
       d="m 1179.5118,508.8573 -13.9989,10.4993 c -1.2498,0.9374 -1.5043,2.7187 -0.5669,3.9685 l 2.4003,3.2003 c 0.9375,1.2498 2.7188,1.504 3.9686,0.5669 l 13.9988,-10.4992 c 1.2498,-0.9375 1.5044,-2.7188 0.567,-3.9685 l -2.4004,-3.2004 c -0.9374,-1.2498 -2.7187,-1.504 -3.9685,-0.5669 z m 41.5593,-33.7167 c -0.9947,0.6571 -1.9913,1.3113 -2.99,1.9624 -6.3779,4.1593 -12.9138,7.7732 -19.8269,10.9619 -6.8377,3.1538 -13.8804,5.8765 -20.8922,8.6148 l -1.0032,0.3917 c -1.4533,0.5675 -2.1776,2.2187 -1.6095,3.672 l 1.4618,3.7412 c 0.5675,1.4527 2.2181,2.1761 3.6712,1.6089 l 1.0043,-0.392 c 7.2496,-2.8298 14.5253,-5.6455 21.5912,-8.9135 7.2788,-3.3665 14.1582,-7.1915 20.8763,-11.5728 1.0497,-0.6845 2.0965,-1.3736 3.1405,-2.067 0.6526,-0.4334 1.071,-1.0636 1.2169,-1.8334 0.1452,-0.7668 -0.014,-1.5115 -0.4614,-2.1513 l -2.2924,-3.2813 c -0.8782,-1.2572 -2.607,-1.5869 -3.8866,-0.7416 z m -63.4487,26.0147 0.6573,-0.2041 c 12.8404,-3.9844 25.5189,-9.2531 37.7249,-14.8884 13.8634,-6.4004 27.6857,-13.5244 40.9023,-21.1839 0.6701,-0.3883 1.1225,-0.9816 1.3198,-1.7305 0.1967,-0.747 0.095,-1.4894 -0.296,-2.1558 l -2.0242,-3.452 c -0.7863,-1.3408 -2.5206,-1.7983 -3.8659,-1.0191 -12.954,7.5042 -26.5062,14.4746 -40.0924,20.7471 -11.8128,5.4538 -24.0837,10.5752 -36.5162,14.4331 l -0.069,0.0216 -0.032,0.0224 -20.9554,6.6849 c -1.486,0.4745 -2.3114,2.0696 -1.8403,3.5564 l 1.2073,3.8103 c 0.2336,0.7367 0.7132,1.3065 1.3995,1.6617 0.6868,0.3552 1.4286,0.4175 2.1648,0.1825 z M 818.7272,469.6165 c -7.9342,-1.1656 -15.899,-2.2099 -23.8658,-3.1258 -5.4439,-0.6259 -10.8989,-1.19 -16.3607,-1.6401 -5.0474,-0.4159 -10.1381,-0.7523 -15.2028,-0.8292 -10.7937,-0.1635 -21.7479,0.5599 -32.3368,2.7255 -9.0932,1.8599 -18.0436,4.8206 -26.1683,9.3541 -8.2802,4.6205 -16.4962,9.3892 -24.6804,14.1778 -6.4868,3.795 -13.0691,7.5982 -19.4377,11.5854 -0.6551,0.4102 -1.0868,1.0174 -1.2592,1.7711 -0.172,0.7535 -0.047,1.4876 0.3646,2.1416 l 2.1353,3.3917 c 0.8275,1.3141 2.5869,1.7163 3.903,0.8926 6.3162,-3.9538 12.8452,-7.7256 19.2785,-11.4891 8.0912,-4.7339 16.2136,-9.4493 24.3997,-14.0171 7.2531,-4.0473 15.283,-6.6696 23.3989,-8.3296 9.9105,-2.0267 20.1816,-2.6878 30.2828,-2.5344 4.8784,0.074 9.7858,0.4056 14.6472,0.811 5.3351,0.4447 10.6639,1.0012 15.9823,1.6169 7.8435,0.9076 15.6847,1.9408 23.4972,3.0886 1.5421,0.2265 2.9826,-0.8428 3.2142,-2.3837 l 0.5981,-3.9818 c 0.1148,-0.7648 -0.0652,-1.4873 -0.5258,-2.1087 -0.4603,-0.6213 -1.0993,-1.0046 -1.8643,-1.1168 z m -38.4049,8.8406 c -9.3025,-1.4008 -18.851,-1.3266 -28.1603,-0.0232 -9.8694,1.3819 -20.1356,4.2415 -29.088,8.6698 l -14.8079,7.3247 c -1.3989,0.6919 -1.9757,2.3958 -1.2852,3.7953 l 1.7753,3.5977 c 0.6914,1.4012 2.3981,1.9789 3.7987,1.2861 l 14.8045,-7.323 c 8.0323,-3.9731 17.2789,-6.5203 26.1321,-7.7599 8.3613,-1.1707 16.9395,-1.2449 25.2964,0.006 1.5202,0.2276 2.9477,-0.8016 3.2119,-2.3159 l 0.6925,-3.9665 c 0.1346,-0.7708 -0.0349,-1.5095 -0.4924,-2.1444 -0.4578,-0.6358 -1.1029,-1.0299 -1.8776,-1.1467 z m -18.9142,17.4895 c -5.0777,0.2517 -10.258,1.0636 -15.1866,2.3001 -4.7036,1.18 -9.3459,2.7966 -13.7033,4.9317 -0.7086,0.3472 -1.207,0.9232 -1.4499,1.6738 -0.2426,0.7507 -0.1752,1.5098 0.1962,2.206 l 1.8844,3.5328 c 0.7166,1.3436 2.3689,1.881 3.7389,1.216 3.7154,-1.8034 7.6839,-3.1569 11.6853,-4.1607 4.2741,-1.0723 8.7673,-1.8034 13.1709,-2.0347 1.5182,-0.0799 2.704,-1.3436 2.6861,-2.8638 l -0.0471,-4.0034 c -0.009,-0.7906 -0.3166,-1.4899 -0.8926,-2.0316 -0.5746,-0.5405 -1.2943,-0.8053 -2.0823,-0.7662 z"
       style="fill:#f29e0c;fill-rule:evenodd"
       id="path314" />
    <path
       d="m 1180.022,509.5376 -13.9989,10.4993 c -0.8742,0.6556 -1.0525,1.9037 -0.3968,2.7779 l 2.4004,3.2003 c 0.6556,0.8742 1.9037,1.0525 2.7779,0.3969 l 13.9989,-10.4993 c 0.8742,-0.6556 1.0525,-1.9037 0.3969,-2.7779 l -2.4004,-3.2003 c -0.6557,-0.8742 -1.9038,-1.0525 -2.778,-0.3969 z m 41.518,-33.6875 c -0.7733,0.5108 -1.7944,1.1829 -2.9943,1.9653 -14.1622,9.2358 -25.3715,13.6086 -40.8744,19.6563 l -1.0032,0.3917 c -1.0182,0.3974 -1.5245,1.5523 -1.1268,2.5705 l 1.4618,3.7411 c 0.3977,1.018 1.552,1.5237 2.5699,1.1262 l 1.0043,-0.392 c 15.9186,-6.2096 27.4284,-10.6996 42.3122,-20.4063 1.2147,-0.792 2.3018,-1.5098 3.1346,-2.0631 0.462,-0.3067 0.7486,-0.7384 0.8518,-1.2832 0.1032,-0.5451 -0.01,-1.0514 -0.3229,-1.5061 l -2.2924,-3.2814 c -0.6156,-0.8812 -1.8238,-1.1117 -2.7206,-0.519 z m 10.9269,-18.5927 c -8.6734,5.0247 -23.551,13.1142 -40.1623,20.7833 -11.9447,5.5146 -24.7292,10.7833 -36.6206,14.4732 l -0.031,0.0158 -21.0192,6.7111 c -1.0395,0.3319 -1.6177,1.449 -1.2881,2.4894 l 1.2073,3.8103 c 0.1653,0.5216 0.4938,0.9116 0.9797,1.163 0.4861,0.2515 0.9941,0.2943 1.5154,0.1279 l 20.978,-6.6977 v 0.005 c 12.3134,-3.8208 25.4262,-9.2189 37.6206,-14.8485 16.7984,-7.7556 31.9669,-16.0098 40.8322,-21.1476 0.4743,-0.2749 0.7841,-0.6811 0.9238,-1.2112 0.1395,-0.5301 0.07,-1.0361 -0.2072,-1.5089 l -2.0242,-3.452 c -0.5508,-0.9394 -1.7634,-1.2592 -2.706,-0.7135 z m -413.8633,13.2004 c -7.8395,-1.1512 -37.2921,-5.3124 -55.3187,-5.586 -11.0622,-0.1678 -21.9586,0.6231 -32.1534,2.7082 -9.3577,1.9137 -18.1338,4.9167 -25.9242,9.2637 -13.5148,7.5413 -37.5662,21.6623 -44.0813,25.7414 -0.4638,0.2903 -0.7594,0.7061 -0.8813,1.2396 -0.1219,0.5335 -0.0363,1.0363 0.2551,1.4992 l 2.1353,3.3917 c 0.5811,0.9229 1.8074,1.2036 2.7321,0.6247 6.4837,-4.0586 30.4117,-18.1049 43.715,-25.5279 7.0492,-3.9334 15.0574,-6.6643 23.6429,-8.4201 9.614,-1.9664 19.9438,-2.7113 30.4663,-2.5517 17.3576,0.2633 46.4675,4.3835 54.2372,5.5256 1.0789,0.1578 2.0877,-0.5905 2.2496,-1.6688 l 0.5981,-3.9818 c 0.0814,-0.5414 -0.042,-1.0361 -0.3679,-1.476 -0.326,-0.4397 -0.7634,-0.7019 -1.3048,-0.7818 z m -38.4081,8.8404 c -9.555,-1.4392 -19.0788,-1.2594 -27.9155,-0.0221 -11.1031,1.5545 -21.1513,4.7919 -28.829,8.5898 l -14.8079,7.3247 c -0.9791,0.4842 -1.383,1.6773 -0.8997,2.6567 l 1.7754,3.5977 c 0.4838,0.9808 1.6789,1.385 2.6591,0.9003 l 14.8045,-7.323 c 6.9883,-3.4569 16.1805,-6.4103 26.3912,-7.8398 8.0895,-1.1328 16.8026,-1.3008 25.5401,0.007 1.0641,0.1593 2.0634,-0.5613 2.2485,-1.6212 l 0.6925,-3.9665 c 0.0955,-0.5462 -0.0204,-1.0511 -0.3447,-1.5012 -0.324,-0.4499 -0.766,-0.72 -1.3145,-0.8025 z m -18.7452,17.4977 c -4.32,0.2143 -9.591,0.9133 -15.0219,2.2756 -4.4836,1.1251 -9.133,2.7131 -13.536,4.8705 -0.5015,0.2458 -0.843,0.6404 -1.0148,1.1719 -0.1718,0.5312 -0.1256,1.0513 0.1372,1.544 l 1.8845,3.5328 c 0.5017,0.9408 1.6579,1.317 2.6172,0.8513 3.7964,-1.8426 7.8732,-3.223 11.8497,-4.2205 4.8911,-1.2272 9.5516,-1.8604 13.3333,-2.0591 1.063,-0.0559 1.8927,-0.9403 1.8802,-2.0047 l -0.0471,-4.0034 c -0.006,-0.5595 -0.2171,-1.0386 -0.6247,-1.4221 -0.4076,-0.3832 -0.8986,-0.5641 -1.4576,-0.5363 z"
       style="fill:#f3a319;fill-rule:evenodd"
       id="path316" />
  </g>
  <path
     d="m 175.1914,449.0877 7.6207,7.9401 c 0.7912,0.8243 1.0108,2.0015 0.5703,3.0557 -0.4419,1.0576 -1.4289,1.7252 -2.5752,1.7416 l -6.8089,0.0964 c -0.8736,0.0122 -1.6562,-0.3458 -2.2155,-1.0173 l -12.8636,-15.4469 c -1.2756,-1.5318 0.3492,-3.8199 1.3836,-5.0218 l 3.0846,-3.5839 c 0.7878,-0.915 2.0214,-1.2293 3.151,-0.8025 5.2787,1.9954 10.9718,3.8614 16.5084,4.9686 5.2299,1.046 10.5378,1.887 15.8222,2.6147 1.5295,0.2106 2.6141,1.6189 2.427,3.1516 l -0.4881,3.9982 c -0.0944,0.7736 -0.4666,1.4261 -1.084,1.9018 -0.6171,0.4756 -1.3445,0.6687 -2.1161,0.5627 -5.4961,-0.756 -11.0174,-1.63 -16.4568,-2.7176 -1.9987,-0.3997 -3.9886,-0.8924 -5.9596,-1.4414 z"
     style="fill:#f29e0c;fill-rule:evenodd"
     id="path319" />
  <path
     d="m 172.4362,460.3599 -12.8636,-15.4468 c -0.9301,-1.1169 0.8118,-3.2689 1.3748,-3.9229 l 3.0846,-3.5838 c 0.5545,-0.6443 1.4105,-0.8623 2.2057,-0.5618 2.8919,1.0933 10.1409,3.7068 16.6424,5.0071 6.162,1.2322 12.7083,2.1875 15.8729,2.6232 1.0718,0.1476 1.8298,1.1318 1.6988,2.2059 l -0.4881,3.9982 c -0.0669,0.5477 -0.3217,0.9947 -0.7588,1.3315 -0.4371,0.3367 -0.9346,0.4688 -1.4811,0.3937 -3.2726,-0.4501 -10.0511,-1.4383 -16.4061,-2.7091 -2.9744,-0.5947 -6.1002,-1.4476 -8.951,-2.3224 l 9.832,10.2439 c 0.5593,0.5825 0.7106,1.394 0.3991,2.139 -0.3112,0.7452 -0.9949,1.2078 -1.8025,1.2192 l -6.8089,0.0963 c -0.6179,0.009 -1.1551,-0.2361 -1.5502,-0.7112 z"
     style="fill:#f3a319;fill-rule:evenodd"
     id="path321" />
  <path
     d="m 400.3162,427.3445 c 5.9485,-2.5242 12.0489,-4.78 18.1587,-6.8802 7.1405,-2.4548 14.3649,-4.7024 21.638,-6.7315 7.2924,-2.0347 14.6724,-3.8653 22.1006,-5.3342 6.4052,-1.2668 13.0388,-2.3306 19.5636,-2.6819 16.4466,-0.8852 31.3537,2.7465 46.9088,7.6238 0.737,0.2313 1.3082,0.7098 1.6654,1.3949 0.3574,0.6855 0.4221,1.4279 0.1888,2.1649 l -1.209,3.8208 c -0.47,1.4859 -2.0633,2.3162 -3.5504,1.8502 -14.347,-4.4978 -28.3062,-8.0113 -43.4798,-7.1947 -6.2118,0.3343 -12.543,1.3683 -18.6383,2.5864 -7.1544,1.4295 -14.2623,3.2091 -21.2851,5.1814 -7.0129,1.9693 -13.9788,4.1471 -20.8653,6.5214 -5.8518,2.0177 -11.6971,4.1805 -17.3962,6.5993 -1.4286,0.6061 -3.1014,-0.0677 -3.7122,-1.4941 l -1.5852,-3.7015 c -0.3041,-0.7103 -0.3123,-1.4556 -0.0243,-2.1727 0.288,-0.7172 0.8104,-1.2504 1.5219,-1.5523 z"
     style="fill:#f29e0c;fill-rule:evenodd"
     id="path323" />
  <path
     d="m 400.6485,428.1275 c 20.4612,-8.6832 58.3283,-20.3322 81.1742,-21.5616 16.4181,-0.8839 31.0914,2.7207 46.6086,7.5862 0.5217,0.1634 0.9132,0.4912 1.166,0.9766 0.253,0.4853 0.2968,0.9939 0.132,1.515 l -1.2089,3.821 c -0.3289,1.0398 -1.4445,1.6213 -2.4854,1.2949 -14.5086,-4.5485 -28.4344,-8.0583 -43.7797,-7.2322 -21.9426,1.1806 -58.8547,12.6293 -78.4715,20.9548 -1.0031,0.4255 -2.1695,-0.0436 -2.5983,-1.046 l -1.585,-3.7014 c -0.2152,-0.5031 -0.2208,-1.0135 -0.0171,-1.5211 0.2038,-0.5076 0.5621,-0.8731 1.0651,-1.0862 z"
     style="fill:#f3a319;fill-rule:evenodd"
     id="path325" />
  <g
     id="Layer1003">
    <path
       d="m 1133.6399,449.0877 -7.6207,7.9401 c -0.7912,0.8243 -1.0108,2.0015 -0.5703,3.0557 0.4419,1.0576 1.4289,1.7252 2.5752,1.7416 l 6.8089,0.0964 c 0.8736,0.0122 1.6562,-0.3458 2.2155,-1.0173 l 12.8636,-15.4469 c 1.2756,-1.5318 -0.3492,-3.8199 -1.3835,-5.0218 l -3.0847,-3.5839 c -0.7878,-0.915 -2.0214,-1.2293 -3.151,-0.8025 -5.2787,1.9954 -10.9718,3.8614 -16.5084,4.9686 -5.2299,1.046 -10.5378,1.887 -15.8222,2.6147 -1.5295,0.2106 -2.6141,1.6189 -2.427,3.1516 l 0.4881,3.9982 c 0.094,0.7736 0.4666,1.4261 1.084,1.9018 0.6171,0.4756 1.3445,0.6687 2.1161,0.5627 5.4961,-0.756 11.0174,-1.63 16.4568,-2.7176 1.9987,-0.3997 3.9886,-0.8924 5.9596,-1.4414 z"
       style="fill:#f29e0c;fill-rule:evenodd"
       id="path327" />
    <path
       d="m 1136.3951,460.3599 12.8637,-15.4468 c 0.93,-1.1169 -0.8119,-3.2689 -1.3748,-3.9229 l -3.0847,-3.5838 c -0.5545,-0.6443 -1.4105,-0.8623 -2.2056,-0.5618 -2.892,1.0933 -10.141,3.7068 -16.6425,5.0071 -6.162,1.2322 -12.7083,2.1875 -15.8729,2.6232 -1.0718,0.1476 -1.8298,1.1318 -1.6988,2.2059 l 0.4881,3.9982 c 0.067,0.5477 0.3217,0.9947 0.7588,1.3315 0.4371,0.3367 0.9346,0.4688 1.4811,0.3937 3.2726,-0.4501 10.0511,-1.4383 16.4061,-2.7091 2.9744,-0.5947 6.1002,-1.4476 8.951,-2.3224 l -9.832,10.2439 c -0.5593,0.5825 -0.7106,1.394 -0.3991,2.139 0.3112,0.7452 0.995,1.2078 1.8025,1.2192 l 6.8089,0.0963 c 0.6179,0.009 1.1551,-0.2361 1.5502,-0.7112 z"
       style="fill:#f3a319;fill-rule:evenodd"
       id="path329" />
    <path
       d="m 908.5151,427.3445 c -5.9485,-2.5242 -12.0489,-4.78 -18.1587,-6.8802 -7.1405,-2.4548 -14.3649,-4.7024 -21.638,-6.7315 -7.2924,-2.0347 -14.6724,-3.8653 -22.1006,-5.3342 -6.4052,-1.2668 -13.0388,-2.3306 -19.5636,-2.6819 -16.4466,-0.8852 -31.3537,2.7465 -46.9088,7.6238 -0.737,0.2313 -1.3082,0.7098 -1.6654,1.3949 -0.3574,0.6855 -0.4221,1.4279 -0.1888,2.1649 l 1.209,3.8208 c 0.47,1.4859 2.0633,2.3162 3.5504,1.8502 14.347,-4.4978 28.3062,-8.0113 43.4798,-7.1947 6.2118,0.3343 12.543,1.3683 18.6383,2.5864 7.1544,1.4295 14.2623,3.2091 21.2851,5.1814 7.0129,1.9693 13.9788,4.1471 20.8653,6.5214 5.8518,2.0177 11.6971,4.1805 17.3962,6.5993 1.4287,0.6061 3.1014,-0.0677 3.7122,-1.4941 l 1.5852,-3.7015 c 0.3041,-0.7103 0.3124,-1.4556 0.0244,-2.1727 -0.288,-0.7172 -0.8105,-1.2504 -1.522,-1.5523 z"
       style="fill:#f29e0c;fill-rule:evenodd"
       id="path331" />
    <path
       d="m 908.1828,428.1275 c -20.4612,-8.6832 -58.3283,-20.3322 -81.1742,-21.5616 -16.4181,-0.8839 -31.0914,2.7207 -46.6086,7.5862 -0.5217,0.1634 -0.9132,0.4912 -1.1659,0.9766 -0.2531,0.4853 -0.2969,0.9939 -0.1321,1.515 l 1.2089,3.821 c 0.329,1.0398 1.4445,1.6213 2.4854,1.2949 14.5086,-4.5485 28.4344,-8.0583 43.7797,-7.2322 21.9426,1.1806 58.8547,12.6293 78.4715,20.9548 1.0031,0.4255 2.1695,-0.0436 2.5983,-1.046 l 1.5851,-3.7014 c 0.2152,-0.5031 0.2207,-1.0135 0.017,-1.5211 -0.2037,-0.5076 -0.5621,-0.8731 -1.0651,-1.0862 z"
       style="fill:#f3a319;fill-rule:evenodd"
       id="path333" />
  </g>
  <path
     d="m 377.1421,547.9309 h 96.2487 c 0.8494,0 1.5423,0.6318 1.5423,1.4062 v 2.8569 c 0,0.7744 -0.6929,1.4062 -1.5423,1.4062 h -96.2487 c -0.8494,0 -1.5423,-0.6318 -1.5423,-1.4062 v -2.8569 c 0,-0.7744 0.6929,-1.4062 1.5423,-1.4062 z"
     style="fill:#ffffff;fill-rule:evenodd"
     id="path336" />
  <path
     d="M 816.8139,566.4009 H 926.782 c 0.9705,0 1.7622,0.6318 1.7622,1.4062 v 2.8569 c 0,0.7744 -0.7917,1.4062 -1.7622,1.4062 H 816.8139 c -0.9704,0 -1.7621,-0.6318 -1.7621,-1.4062 v -2.8569 c 0,-0.7744 0.7917,-1.4062 1.7621,-1.4062 z"
     style="fill:#ffffff;fill-rule:evenodd"
     id="path338" />
  <g
     id="Layer1004">
    <g
       id="Layer1005">
      <path
         d="m 161.3692,547.3266 c 13.5706,0.1768 26.9661,1.1301 40.4593,0.93 1.2005,0 2.1737,1.2691 2.1737,2.8347 0,1.5655 -0.9732,2.8346 -2.1737,2.8346 -13.5086,0.201 -26.9492,-0.7537 -40.5379,-0.9312 -1.2004,-0.0283 -2.1558,-1.3201 -2.134,-2.8854 0.0217,-1.5653 1.0123,-2.8111 2.2126,-2.7827 z"
         style="fill:#ffffff;fill-rule:evenodd"
         id="path340" />
    </g>
    <path
       d="m 161.3299,550.1606 c 8.9065,0.2101 16.2382,-0.1275 25.0334,0.851 3.7869,0.4212 11.0844,0.0797 15.4652,0.0797"
       style="fill:none"
       id="path343" />
    <g
       id="Layer1006">
      <path
         d="m 162.1021,559.7454 c 20.0382,0.0389 40.7437,1.3777 60.0408,1.2206 1.7634,0 3.1929,1.2691 3.1929,2.8347 0,1.5656 -1.4295,2.8346 -3.1929,2.8346 -19.3064,0.1582 -39.9991,-1.1817 -60.0408,-1.2206 -1.7634,0 -3.1929,-1.269 -3.1929,-2.8346 0,-1.5656 1.4295,-2.8347 3.1929,-2.8347 z"
         style="fill:#ffffff;fill-rule:evenodd"
         id="path345" />
    </g>
    <path
       d="m 162.1021,562.5801 c 17.4095,0 34.7297,0.0493 52.0265,1.1684 2.4441,0.1579 5.44,0.0522 8.0143,0.0522"
       style="fill:none"
       id="path348" />
    <g
       id="Layer1007">
      <path
         d="m 162.393,571.0588 c 25.9725,0.1114 51.9029,0.4235 77.8754,0.5349 2.2392,0 4.0544,1.2691 4.0544,2.8346 0,1.5656 -1.8152,2.8347 -4.0544,2.8347 -25.9729,-0.1114 -51.9029,-0.4235 -77.8754,-0.5349 -2.2392,0 -4.0544,-1.2691 -4.0544,-2.8347 0,-1.5655 1.8152,-2.8346 4.0544,-2.8346 z"
         style="fill:#ffffff;fill-rule:evenodd"
         id="path350" />
    </g>
    <path
       d="m 162.393,573.8934 c 26.0702,0 51.7375,0.5349 77.8754,0.5349"
       style="fill:none"
       id="path353" />
  </g>
  <path
     d="m 657.8494,613.1496 c -0.6222,0.002 -1.1296,0.5114 -1.1296,1.1336 v 4.5204 c 0,0.6233 0.5102,1.1338 1.1336,1.1338 h 1.3388 c 27.2849,0.3096 58.2647,-7.6067 74.5064,-31.3625 0.3747,-0.5479 0.7208,-1.1871 1.0468,-1.7663 0.5562,-0.9887 1.0973,-1.987 1.6311,-2.988 1.0729,-2.0123 2.1588,-4.0725 3.113,-6.1432 0.1768,-0.3835 0.1414,-0.7775 -0.1007,-1.1239 l -3.1705,-4.5346 c -0.2512,-0.3595 -0.6321,-0.529 -1.0673,-0.4757 -0.4356,0.0533 -0.7636,0.3101 -0.9207,0.7197 l -0.7554,1.9707 c -1.3592,3.5461 -3.2485,7.3658 -5.392,10.5015 -14.4582,21.1465 -46.082,28.334 -70.2335,28.4145 z"
     style="fill:#ffffff;fill-rule:evenodd"
     id="path356" />
  <g
     id="Layer1008">
    <path
       d="m 1147.6567,555.6199 c -15.1058,0.1769 -30.0169,1.1302 -45.0366,0.93 -1.3364,0 -2.4197,1.2691 -2.4197,2.8347 0,1.5656 1.0833,2.8346 2.4197,2.8346 15.0369,0.201 29.998,-0.7537 45.1242,-0.9312 1.3362,-0.0283 2.3996,-1.32 2.3754,-2.8853 -0.024,-1.5653 -1.1268,-2.8112 -2.463,-2.7828 z"
       style="fill:#ffffff;fill-rule:evenodd"
       id="path358" />
    <path
       d="m 1146.9274,564.3118 c -20.0382,0.0388 -40.7437,1.3776 -60.0409,1.2206 -1.7634,0 -3.1928,1.269 -3.1928,2.8346 0,1.5656 1.4294,2.8347 3.1928,2.8347 19.3064,0.1581 39.9992,-1.1818 60.0409,-1.2206 1.7634,0 3.1928,-1.2691 3.1928,-2.8347 0,-1.5656 -1.4294,-2.8346 -3.1928,-2.8346 z"
       style="fill:#ffffff;fill-rule:evenodd"
       id="path360" />
    <path
       d="m 1146.0658,573.3308 c -25.9725,0.1114 -51.9028,0.4235 -77.8753,0.5349 -2.2393,0 -4.0545,1.269 -4.0545,2.8346 0,1.5656 1.8152,2.8346 4.0545,2.8346 25.9729,-0.1114 51.9028,-0.4235 77.8753,-0.5349 2.2392,0 4.0544,-1.269 4.0544,-2.8346 0,-1.5656 -1.8152,-2.8346 -4.0544,-2.8346 z"
       style="fill:#ffffff;fill-rule:evenodd"
       id="path362" />
    <path
       d="m 1148.1958,546.383 c -10.9726,0.58 -21.7753,1.9307 -32.6992,2.1317 -0.9713,0.0357 -1.7121,1.3328 -1.6546,2.8973 0.057,1.5646 0.8914,2.8039 1.8627,2.7682 10.9365,-0.2006 21.7754,-1.5541 32.7629,-2.1352 0.9701,-0.064 1.6956,-1.3833 1.6205,-2.9469 -0.075,-1.5636 -0.9222,-2.7791 -1.8923,-2.7151 z"
       style="fill:#ffffff;fill-rule:evenodd"
       id="path364" />
  </g>
</svg>
